<svg width="194" height="25" viewBox="0 0 194 25" fill="none" xmlns="http://www.w3.org/2000/svg">
<path d="M41.8458 11.967C43.8925 10.9009 45.3766 9.07607 45.3766 6.64618C45.3766 2.42028 42.0786 0 36.3459 0H25.5013V24.904H37.2092C42.8352 24.904 46.3369 22.2052 46.3369 17.8736C46.3369 14.9443 44.3872 12.9946 41.8458 11.967ZM36.4429 11.0257H29.7014V2.06493H36.0549C39.6342 2.06493 41.1571 3.43834 41.1571 6.63657C41.1571 9.73876 39.7506 11.0257 36.4429 11.0257ZM29.7014 22.8294V13.0907H36.3847C38.4993 13.0907 42.0398 13.7149 42.0398 17.9312C42.0398 21.3696 40.5072 22.839 36.8988 22.839H29.7014V22.8294ZM0 14.2432C0 8.30772 4.5687 3.48636 10.2141 3.48636C15.8498 3.48636 20.4282 8.30772 20.4282 14.2432C20.4282 20.1786 15.8401 25 10.2141 25C4.5881 24.9904 0 20.169 0 14.2432ZM3.9576 14.2432C3.9576 19.6792 6.2953 22.9255 10.2141 22.9255V22.9159C14.1135 22.9159 16.4415 19.6696 16.4415 14.2432C16.4415 8.81675 14.1329 5.56089 10.2141 5.56089C6.2953 5.56089 3.9576 8.80715 3.9576 14.2432ZM49.8774 14.2432C49.8774 8.30772 54.4461 3.48636 60.0915 3.48636C65.7272 3.48636 70.3056 8.30772 70.3056 14.2432C70.3056 20.1786 65.7175 25 60.0915 25C54.4655 25 49.8774 20.169 49.8774 14.2432ZM53.835 14.2432C53.835 19.6792 56.1727 22.9255 60.0915 22.9255V22.9159C63.9909 22.9159 66.3189 19.6696 66.3189 14.2432C66.3189 8.81675 64.0103 5.56089 60.0915 5.56089C56.1727 5.56089 53.835 8.80715 53.835 14.2432ZM78.6573 5.801H71.1786V3.75528H89.9287V5.801H82.4209V24.6927H78.6573V5.801ZM97.5141 3.75528H93.7214V24.6831H97.5141V3.75528ZM111.928 22.8678C113.606 22.8678 116.613 22.3396 117.894 18.834L118.262 17.816L120.096 18.7188L119.795 19.5448C118.524 22.9735 115.595 24.952 111.763 24.952C106.002 24.952 101.666 20.3419 101.666 14.2432C101.666 8.22128 106.099 3.48636 111.763 3.48636C115.576 3.48636 118.486 5.47445 119.737 8.95121L120.028 9.77718L118.195 10.6992L117.826 9.67153C116.895 7.07837 114.741 5.5897 111.909 5.5897C107.971 5.5897 105.623 8.80715 105.623 14.224C105.643 19.6408 107.99 22.8678 111.928 22.8678ZM159.856 20.899L158.76 17.7199C158.323 16.5482 157.499 15.5686 156.413 14.9347C158.382 14.0607 160.089 12.428 160.089 9.80599C160.089 6.0219 157.033 3.76489 151.912 3.76489H144.21V24.6927H148.003V15.7799H151.31C153.735 15.7799 154.511 16.7403 155.181 18.642L156.248 21.6577C156.519 22.5797 156.927 23.4537 157.441 24.2605L157.732 24.6735H162.824L161.02 22.9927C160.477 22.4068 160.069 21.6865 159.856 20.899ZM148.012 5.801H151.669C154.851 5.801 156.219 7.00154 156.219 9.8252C156.219 12.5336 154.822 13.7438 151.698 13.7438H148.022C148.012 13.7342 148.012 5.801 148.012 5.801ZM165.618 3.75528H169.411V24.6831H165.618V3.75528ZM183.786 3.48636C178.15 3.48636 173.572 8.30772 173.572 14.2432C173.572 20.1786 178.17 25 183.786 25C189.412 25 194 20.1786 194 14.2432C194 8.30772 189.412 3.48636 183.786 3.48636ZM183.786 5.53208C187.685 5.53208 190.013 8.77833 190.013 14.2144C190.013 19.6504 187.685 22.8967 183.786 22.8967C179.887 22.8967 177.51 19.66 177.51 14.224C177.51 8.78794 179.867 5.53208 183.786 5.53208ZM131.561 0.432194H133.782L132.066 4.48521L141.125 24.6927H137.1L133.909 17.5855H126.44L123.345 24.6831H121.124L131.561 0.432194ZM130.067 9.05686L127.293 15.5206H132.968L130.067 9.05686Z" fill="white"/>
</svg>
