<svg width="179" height="41" viewBox="0 0 179 41" fill="none" xmlns="http://www.w3.org/2000/svg">
<path d="M23.296 0.0694086C23.7377 1.60902 24.1857 3.14863 24.6211 4.69454C24.6427 4.81645 24.6997 4.92931 24.785 5.01907C24.8702 5.10883 24.98 5.17152 25.1007 5.19933C26.1355 5.60317 27.1577 6.03855 28.1736 6.46131C28.2624 6.51408 28.3637 6.54193 28.467 6.54193C28.5703 6.54193 28.6716 6.51408 28.7604 6.46131C30.0224 5.74829 31.3222 5.04159 32.5968 4.31595C32.6439 4.28 32.6977 4.25375 32.755 4.23872C32.8123 4.22369 32.872 4.22018 32.9307 4.22839C32.9894 4.23661 33.0459 4.25639 33.0969 4.28658C33.1479 4.31677 33.1924 4.35678 33.2278 4.40429C34.3446 5.54638 35.4678 6.66953 36.6099 7.78638C36.6639 7.82153 36.7099 7.86762 36.745 7.92166C36.78 7.9757 36.8034 8.0365 36.8135 8.10013C36.8236 8.16376 36.8202 8.2288 36.8036 8.29105C36.7871 8.35331 36.7576 8.41138 36.7171 8.46154C36.0041 9.72351 35.3164 10.9855 34.6033 12.2475C34.5365 12.3578 34.5012 12.4844 34.5012 12.6134C34.5012 12.7425 34.5365 12.869 34.6033 12.9794C35.045 13.9637 35.4615 14.967 35.8653 15.9766C35.8939 16.0896 35.9533 16.1925 36.0369 16.2738C36.1204 16.3551 36.2248 16.4116 36.3386 16.4372L40.522 17.6298C40.9637 17.756 40.9637 17.756 40.9637 18.1977V22.8922C40.9637 23.3655 40.9637 23.3655 40.5157 23.5232C39.1338 23.9144 37.752 24.3182 36.3701 24.7031C36.2438 24.7354 36.1285 24.801 36.0364 24.8932C35.9442 24.9853 35.8786 25.1006 35.8464 25.2269C35.4552 26.2364 35.0345 27.2334 34.5844 28.2177C34.529 28.3137 34.4999 28.4225 34.4999 28.5332C34.4999 28.644 34.529 28.7528 34.5844 28.8487C35.3164 30.1107 36.0294 31.4358 36.7487 32.723C36.856 32.9186 36.938 33.0827 36.7108 33.1773L31.2212 27.7003C32.2881 26.0988 32.9721 24.2733 33.2205 22.3651C33.4689 20.4569 33.2749 18.5172 32.6536 16.6959C31.7327 13.8002 29.7697 11.3493 27.1451 9.81816C25.1973 8.64747 22.9713 8.02048 20.6989 8.00249C18.4265 7.98451 16.1909 8.57619 14.2249 9.7159C12.2589 10.8556 10.6345 12.5017 9.52083 14.4825C8.4072 16.4634 7.84511 18.7067 7.89312 20.9787C7.94114 23.2506 8.59749 25.4682 9.79382 27.4002C10.9901 29.3323 12.6827 30.9083 14.6951 31.9639C16.7075 33.0195 18.9661 33.5162 21.2357 33.4023C23.5053 33.2883 25.7029 32.5678 27.5994 31.3159L33.0953 36.7992C33.0132 37.0074 32.8429 36.9317 32.6536 36.7992C31.5178 36.1682 30.3694 35.5372 29.2589 34.9062C29.0289 34.7355 28.7526 34.6386 28.4664 34.6285C28.1801 34.6184 27.8976 34.6954 27.6562 34.8494C26.8237 35.2653 25.961 35.6175 25.0754 35.9032C24.9548 35.931 24.845 35.9937 24.7597 36.0834C24.6745 36.1732 24.6175 36.2861 24.5959 36.408C24.2047 37.7898 23.8071 39.1654 23.4096 40.5472C23.2834 40.9952 23.2834 40.9952 22.7786 40.9952C21.2012 40.9952 19.6237 40.9952 18.0399 40.9952C17.9789 41.0041 17.9167 41.0006 17.857 40.9849C17.7974 40.9693 17.7415 40.9418 17.6926 40.9041C17.6438 40.8665 17.603 40.8194 17.5727 40.7657C17.5424 40.712 17.5232 40.6527 17.5162 40.5914C17.1818 39.1906 16.7716 37.8024 16.4057 36.408C16.3759 36.2812 16.3128 36.1646 16.223 36.0703C16.1331 35.9761 16.0198 35.9075 15.8946 35.8716C14.8661 35.4804 13.8565 35.045 12.8532 34.6096C12.7656 34.5568 12.6653 34.5288 12.563 34.5288C12.4606 34.5288 12.3603 34.5568 12.2727 34.6096C11.0107 35.329 9.70458 36.0294 8.42999 36.755C8.37973 36.7988 8.32079 36.8314 8.25703 36.8508C8.19327 36.8702 8.12614 36.8759 8.06002 36.8676C7.9939 36.8593 7.93028 36.8371 7.87334 36.8024C7.8164 36.7678 7.76742 36.7215 7.72959 36.6667C6.61906 35.5246 5.48959 34.4014 4.3475 33.2846C4.29999 33.2492 4.25998 33.2047 4.22979 33.1537C4.1996 33.1027 4.17982 33.0462 4.1716 32.9875C4.16339 32.9288 4.1669 32.8691 4.18193 32.8118C4.19696 32.7545 4.22321 32.7007 4.25916 32.6536C4.95956 31.4295 5.63472 30.1927 6.3288 28.9686C6.41219 28.8352 6.4564 28.6811 6.4564 28.5238C6.4564 28.3665 6.41219 28.2123 6.3288 28.0789C5.89342 27.1703 5.51483 26.2301 5.16148 25.2837C5.12427 25.1307 5.04574 24.991 4.93445 24.8797C4.82316 24.7684 4.68341 24.6899 4.53049 24.6527C3.02874 24.2173 1.51437 23.7693 0 23.3339V17.737C1.52699 17.2954 3.05398 16.8474 4.58728 16.4246C4.72644 16.3915 4.85398 16.3211 4.95623 16.2211C5.05849 16.1211 5.13162 15.9951 5.16778 15.8567C5.54638 14.8724 5.95021 13.9006 6.3919 12.9415C6.45872 12.8312 6.49404 12.7046 6.49404 12.5756C6.49404 12.4465 6.45872 12.32 6.3919 12.2096C5.67888 10.9476 4.99111 9.68565 4.27809 8.42368C4.2413 8.37691 4.21434 8.32318 4.19883 8.26574C4.18332 8.20829 4.17958 8.1483 4.18783 8.08936C4.19608 8.03043 4.21615 7.97378 4.24684 7.9228C4.27754 7.87181 4.31821 7.82756 4.36643 7.79269C5.51483 6.66953 6.6506 5.53376 7.77376 4.38536C7.80911 4.33762 7.85372 4.29749 7.90493 4.26739C7.95615 4.23729 8.01291 4.21783 8.07181 4.21017C8.13072 4.20251 8.19057 4.20682 8.24778 4.22282C8.30498 4.23883 8.35837 4.26621 8.40475 4.30333C9.66672 5.01635 10.9287 5.71043 12.1907 6.42345C12.2866 6.47883 12.3954 6.50799 12.5062 6.50799C12.6169 6.50799 12.7257 6.47883 12.8217 6.42345C13.7934 5.98176 14.7777 5.56531 15.781 5.16147C15.9194 5.12531 16.0454 5.05218 16.1454 4.94992C16.2454 4.84767 16.3158 4.72013 16.3489 4.58097C16.7716 3.04767 17.2196 1.52699 17.6613 0L23.296 0.0694086ZM143.701 30.6218C143.6 29.486 143.493 28.3566 143.392 27.2208C143.322 26.4762 143.272 25.7317 143.203 24.9934L142.881 21.4662C142.811 20.7532 142.755 20.0338 142.691 19.3208L142.37 15.8441C142.307 15.1185 142.25 14.3865 142.18 13.6609C142.079 12.5503 141.966 11.4461 141.871 10.3419C141.833 9.9065 141.871 9.90019 141.411 9.90019H137.088C136.628 9.90019 136.621 9.90019 136.457 10.3419C135.153 13.745 133.845 17.146 132.533 20.5449C132.299 21.1759 132.059 21.8069 131.82 22.3874H131.731C131.659 22.2609 131.593 22.1303 131.536 21.9962L127.049 10.3356C126.879 9.90019 126.879 9.89388 126.418 9.89388H122.184C121.692 9.89388 121.654 9.93805 121.616 10.4555C121.579 10.9729 121.547 11.4903 121.503 12.0077C121.402 13.1308 121.295 14.2477 121.194 15.3708C121.124 16.1217 121.061 16.8789 120.992 17.6361C120.897 18.7403 120.784 19.8509 120.689 20.9551C120.62 21.7249 120.563 22.4947 120.493 23.2645C120.392 24.4255 120.285 25.5928 120.172 26.7539C120.102 27.5363 120.02 28.3187 119.951 29.1011C119.881 29.8836 119.824 30.5335 119.755 31.2465C119.755 31.4989 119.812 31.5935 120.083 31.5935C121.478 31.5935 122.878 31.5935 124.273 31.5935C124.506 31.5935 124.601 31.5241 124.607 31.278C124.607 30.83 124.67 30.382 124.708 29.934C124.809 28.7162 124.923 27.4984 125.017 26.2806C125.093 25.3846 125.144 24.4823 125.213 23.5863C125.32 22.2423 125.428 20.892 125.541 19.548C125.541 19.2514 125.617 18.9612 125.655 18.6646H125.787C125.87 18.7974 125.942 18.9367 126.002 19.0811C126.248 19.7562 126.475 20.4377 126.715 21.1128C127.872 24.4276 129.024 27.7361 130.173 31.0383C130.194 31.168 130.266 31.2841 130.372 31.3619C130.478 31.4397 130.61 31.473 130.741 31.4547C131.447 31.4232 132.154 31.4547 132.854 31.4547C132.964 31.4712 133.075 31.444 133.165 31.3791C133.255 31.3142 133.315 31.2168 133.334 31.1077C133.694 30.0413 134.072 28.9812 134.444 27.9149C135.479 24.9703 136.514 22.0257 137.549 19.0811C137.609 18.9407 137.676 18.8038 137.751 18.6709H137.877C137.877 18.8413 137.946 19.0116 137.959 19.182C138.003 19.7183 138.028 20.2484 138.073 20.7847C138.148 21.7375 138.23 22.6777 138.306 23.6431C138.369 24.4571 138.426 25.271 138.489 26.085C138.571 27.063 138.653 28.0411 138.729 29.0254C138.792 29.7826 138.849 30.5398 138.906 31.297C138.902 31.339 138.908 31.3813 138.924 31.4206C138.939 31.4599 138.963 31.4952 138.994 31.5237C139.025 31.5523 139.062 31.5735 139.103 31.5856C139.143 31.5977 139.186 31.6004 139.227 31.5935H143.77C143.739 31.2339 143.733 30.9247 143.701 30.6218ZM167.792 30.483C168.49 31.0446 169.293 31.4597 170.155 31.7034C171.017 31.9471 171.919 32.0144 172.807 31.9013C173.696 31.7882 174.552 31.497 175.325 31.0451C176.099 30.5932 176.773 29.99 177.307 29.2715C177.923 28.4246 178.353 27.4578 178.571 26.4338C178.788 25.4097 178.788 24.3514 178.569 23.3276C178.347 21.8353 177.618 20.4649 176.505 19.4468C175.391 18.4287 173.961 17.825 172.455 17.737C171.614 17.6705 170.769 17.7823 169.974 18.065C169.179 18.3477 168.453 18.795 167.843 19.3776L167.533 19.63L167.432 19.5922V18.551C167.432 18.1283 167.432 18.122 167.016 18.122H163.337C162.934 18.122 162.927 18.122 162.921 18.5132V37.6258C162.921 38.4397 162.921 38.4397 163.76 38.4397H166.978C167.458 38.4397 167.458 38.4397 167.458 37.9476V30.8805C167.458 30.7101 167.458 30.5335 167.514 30.3063C167.653 30.3947 167.729 30.4262 167.792 30.483ZM167.382 24.842C167.382 23.9868 167.722 23.1667 168.326 22.562C168.931 21.9573 169.751 21.6176 170.606 21.6176C171.461 21.6176 172.282 21.9573 172.886 22.562C173.491 23.1667 173.831 23.9868 173.831 24.842C173.831 25.6971 173.491 26.5172 172.886 27.1219C172.282 27.7266 171.461 28.0663 170.606 28.0663C169.751 28.0663 168.931 27.7266 168.326 27.1219C167.722 26.5172 167.382 25.6971 167.382 24.842ZM70.7526 19.3524C70.5317 19.182 70.3172 19.0053 70.1216 18.8476C68.881 17.9942 67.3811 17.6013 65.8814 17.737C64.4311 17.8066 63.0511 18.3827 61.9819 19.365C60.7098 20.5269 59.912 22.118 59.7419 23.8324C59.5108 25.4762 59.8209 27.1506 60.6252 28.6026C62.676 32.3381 67.7365 33.0196 70.5696 30.2369C70.6523 30.173 70.7387 30.114 70.8283 30.0602L70.9293 30.0981C70.9293 30.4578 70.9293 30.8111 70.9293 31.1708C70.9293 31.5304 70.9293 31.5683 71.3331 31.5683H74.9297C75.4345 31.5683 75.4345 31.5683 75.4345 31.0635C75.4345 26.92 75.4345 22.7744 75.4345 18.6267C75.4345 18.5447 75.4345 18.4564 75.4345 18.3743C75.4345 18.1724 75.3462 18.103 75.1506 18.103C73.8129 18.103 72.4689 18.103 71.1312 18.103C70.904 18.103 70.8346 18.1977 70.8409 18.4059C70.8472 18.6141 70.8409 18.9927 70.8409 19.2893L70.7526 19.3524ZM67.7554 28.0979C67.3239 28.1159 66.8934 28.0438 66.4912 27.8863C66.0891 27.7288 65.7241 27.4893 65.4196 27.183C65.1151 26.8767 64.8778 26.5104 64.7226 26.1074C64.5674 25.7043 64.4979 25.2734 64.5184 24.842C64.5072 24.4144 64.583 23.9889 64.7413 23.5915C64.8996 23.1941 65.1371 22.8331 65.4392 22.5303C65.7414 22.2275 66.102 21.9894 66.4991 21.8303C66.8962 21.6712 67.3215 21.5946 67.7491 21.605C68.1747 21.5997 68.5969 21.6806 68.9904 21.8427C69.3839 22.0049 69.7405 22.245 70.0388 22.5486C70.3371 22.8522 70.5709 23.213 70.7261 23.6093C70.8813 24.0056 70.9547 24.4292 70.9419 24.8546C70.9669 25.2822 70.9021 25.7103 70.7516 26.1114C70.6011 26.5124 70.3682 26.8774 70.068 27.183C69.7678 27.4885 69.4069 27.7278 69.0086 27.8854C68.6103 28.043 68.1834 28.1153 67.7554 28.0979ZM156.024 19.3524L155.759 19.1568L155.463 18.917C154.183 18.0004 152.609 17.5912 151.046 17.7686C150.084 17.8234 149.149 18.1011 148.313 18.5796C147.478 19.0582 146.765 19.7245 146.231 20.526C145.295 21.8799 144.837 23.5077 144.931 25.1511C144.963 26.6389 145.44 28.0831 146.301 29.2967C148.534 32.4517 153.178 32.8492 155.765 30.2874C155.88 30.1897 156 30.0991 156.125 30.0161C156.125 30.4641 156.125 30.8111 156.125 31.1581C156.125 31.5052 156.125 31.5872 156.542 31.5872H160.182C160.637 31.5872 160.637 31.5872 160.637 31.114V21.687C160.637 20.6333 160.637 19.5732 160.637 18.5321C160.637 18.2545 160.58 18.122 160.264 18.1283C159.002 18.1283 157.74 18.1283 156.479 18.1283C156.188 18.1283 156.106 18.2418 156.125 18.5069C156.144 18.7719 156.125 19.0558 156.125 19.3271L156.024 19.3524ZM153.008 21.605C153.44 21.5935 153.869 21.6706 154.269 21.8316C154.67 21.9925 155.033 22.234 155.336 22.5409C155.64 22.8479 155.877 23.2138 156.033 23.6161C156.189 24.0184 156.262 24.4485 156.245 24.8798C156.254 25.3064 156.176 25.7303 156.016 26.1259C155.856 26.5215 155.618 26.8806 155.315 27.1814C155.012 27.4822 154.652 27.7185 154.255 27.8761C153.859 28.0336 153.435 28.109 153.008 28.0979C152.58 28.1193 152.152 28.0498 151.752 27.894C151.352 27.7382 150.99 27.4996 150.689 27.1939C150.388 26.8882 150.155 26.5223 150.006 26.1202C149.856 25.7181 149.793 25.2889 149.822 24.8609C149.808 24.4355 149.881 24.0117 150.035 23.6151C150.189 23.2185 150.422 22.8572 150.72 22.553C151.018 22.2489 151.374 22.0081 151.767 21.8451C152.16 21.6822 152.582 21.6005 153.008 21.605ZM119.193 18.122C117.755 18.122 116.316 18.122 114.871 18.122C114.721 18.1026 114.569 18.1379 114.443 18.2213C114.317 18.3047 114.225 18.4307 114.183 18.5763C113.266 20.5702 112.343 22.562 111.413 24.5517C111.338 24.7158 111.243 24.8672 111.123 25.0944C110.997 24.8798 110.909 24.7473 110.827 24.6022C109.716 22.5641 108.599 20.526 107.501 18.4753C107.453 18.3607 107.37 18.2645 107.263 18.2009C107.156 18.1373 107.032 18.1096 106.908 18.122C105.413 18.122 103.917 18.122 102.422 18.122C102.315 18.122 102.214 18.122 102.075 18.1535L102.226 18.4501C104.214 21.9836 106.195 25.5234 108.202 29.057C108.291 29.195 108.339 29.3561 108.339 29.5207C108.339 29.6853 108.291 29.8464 108.202 29.9845C106.782 32.6725 105.381 35.3731 103.974 38.0738C103.924 38.1747 103.886 38.2883 103.835 38.4145H104.006C105.589 38.4145 107.161 38.4145 108.751 38.4145C109.016 38.4145 109.117 38.282 109.224 38.0801C109.855 36.856 110.486 35.6318 111.117 34.4077L119.257 18.8665L119.635 18.122H119.193ZM57.8426 22.5767V18.6015C57.8426 18.1283 57.8426 18.122 57.3883 18.122H53.7475C53.3184 18.122 53.3121 18.122 53.3121 18.5763C53.3121 20.5765 53.3121 22.5767 53.3121 24.577C53.3026 25.1548 53.2456 25.731 53.1417 26.2995C53.1096 26.7451 52.9363 27.1689 52.647 27.5093C52.3576 27.8497 51.9673 28.089 51.5327 28.1925C51.0769 28.2902 50.6094 28.3221 50.1446 28.2872C49.6515 28.2981 49.171 28.1304 48.7918 27.815C48.4126 27.4996 48.1603 27.0577 48.0812 26.5709C47.9292 26.0155 47.8486 25.443 47.8414 24.8672C47.8414 22.766 47.8414 20.6648 47.8414 18.5573C47.8414 18.1093 47.8414 18.103 47.4061 18.103H43.7085C43.2415 18.103 43.2416 18.103 43.2416 18.5636C43.2416 20.8036 43.2416 23.0437 43.2416 25.2837C43.251 25.9466 43.3015 26.6083 43.393 27.265C43.4709 28.3154 43.8926 29.311 44.5929 30.0979C45.2931 30.8848 46.2329 31.4193 47.2673 31.6188C48.5085 31.9 49.7817 32.0145 51.0532 31.9595C52.021 31.9719 52.9862 31.8573 53.9242 31.6188C54.7352 31.4522 55.4869 31.0719 56.1015 30.5172C56.7161 29.9625 57.1713 29.2536 57.4198 28.4638C57.6322 27.8101 57.7574 27.1312 57.7921 26.4447C57.8489 25.1827 57.7921 23.8513 57.7921 22.5578L57.8426 22.5767ZM99.3552 27.7824C98.4277 28.0285 97.9797 27.694 97.8156 26.9053C97.7645 26.6729 97.7349 26.4364 97.7273 26.1986C97.7273 24.8041 97.7273 23.4033 97.7273 22.0088C97.7273 21.5798 97.7273 21.5671 98.1816 21.5608C98.8757 21.5608 99.5698 21.5608 100.258 21.5608C100.51 21.5608 100.611 21.4725 100.605 21.2138C100.605 20.2989 100.605 19.3839 100.605 18.4627C100.605 18.1661 100.478 18.1156 100.22 18.122C99.5572 18.122 98.8946 18.122 98.2321 18.122C97.721 18.122 97.721 18.122 97.721 17.6109C97.721 16.2164 97.721 14.8156 97.721 13.4211C97.721 13.2003 97.721 13.0425 97.4118 13.0488H93.4366C93.222 13.0488 93.1148 13.1119 93.1337 13.3391C93.1337 13.44 93.1337 13.5347 93.1337 13.6356C93.1337 15.0049 93.1337 16.3678 93.1337 17.737C93.1337 18.0273 93.0454 18.1409 92.7488 18.1283C92.345 18.1283 91.9348 18.1283 91.5247 18.1283C91.266 18.1283 91.1713 18.1977 91.1776 18.4627C91.1776 19.3776 91.1776 20.2925 91.1776 21.2138C91.1776 21.504 91.3038 21.5735 91.5562 21.5671C91.9222 21.5671 92.2945 21.5671 92.6605 21.5671C93.1274 21.5671 93.1337 21.5671 93.1337 22.0404C93.1337 23.6368 93.1337 25.1953 93.1337 26.8233C93.1418 27.4974 93.2265 28.1685 93.3861 28.8235C93.5264 29.549 93.8761 30.2176 94.3918 30.7468C94.9076 31.2761 95.567 31.6428 96.2886 31.8018C97.24 32.0163 98.2272 32.0163 99.1786 31.8018C99.836 31.6813 100.473 31.4689 101.072 31.1708L99.961 27.5615C99.7645 27.6491 99.562 27.7229 99.3552 27.7824ZM77.4663 31.0887C77.4663 31.5872 77.4663 31.5872 77.9774 31.5872H81.6245C82.0473 31.5872 82.0536 31.5872 82.0536 31.1708V9.38909C82.0536 8.97895 82.0536 8.97264 81.6245 8.97264H77.9774C77.4663 8.97264 77.4663 8.97264 77.4663 9.47112V31.0887ZM84.4072 31.1581C84.4072 31.5809 84.4072 31.5872 84.8299 31.5872H88.5086C88.9313 31.5872 88.9376 31.5872 88.9376 31.1708V18.551C88.9376 18.1472 88.9376 18.1409 88.5023 18.1409H84.9056C84.4072 18.1409 84.4008 18.1409 84.4008 18.6646V24.8798C84.3882 26.9621 84.384 29.0549 84.3882 31.1581H84.4072ZM84.0096 12.4368C84.0371 13.1351 84.3325 13.7961 84.8343 14.2826C85.3362 14.769 86.0061 15.0435 86.705 15.0492C87.4039 15.0549 88.0781 14.7913 88.5878 14.3131C89.0975 13.8349 89.4036 13.1788 89.4424 12.4809C89.4149 11.7825 89.1196 11.1216 88.6177 10.6351C88.1159 10.1487 87.446 9.87414 86.7471 9.86845C86.0482 9.86277 85.3739 10.1264 84.8642 10.6046C84.3545 11.0828 84.0485 11.7389 84.0096 12.4368ZM29.0254 20.7027C29.0217 22.362 28.5261 23.9829 27.6014 25.3606C26.6768 26.7383 25.3644 27.811 23.8303 28.4431C22.2961 29.0752 20.609 29.2383 18.9822 28.9119C17.3553 28.5854 15.8618 27.784 14.6903 26.609C13.5187 25.4339 12.7218 23.938 12.4003 22.3102C12.0787 20.6824 12.2469 18.9957 12.8836 17.4635C13.5203 15.9313 14.5969 14.6221 15.9774 13.7016C17.3579 12.781 18.9803 12.2904 20.6396 12.2916C21.7444 12.2866 22.8392 12.5009 23.8605 12.9221C24.8818 13.3433 25.8094 13.9631 26.5895 14.7455C27.3695 15.5279 27.9865 16.4573 28.4046 17.4799C28.8228 18.5025 29.0338 19.5979 29.0254 20.7027ZM20.6964 14.1972C20.6964 13.9133 20.5702 13.8123 20.3052 13.8439C20.0402 13.8754 19.6363 13.9259 19.3082 13.989C17.7298 14.2963 16.3105 15.1509 15.3004 16.4022C14.2904 17.6535 13.7545 19.2211 13.7871 20.8289C13.7871 21.4599 13.8312 21.4914 14.4181 21.4599H14.6326L16.2479 21.2643C16.2858 20.8667 16.2984 20.5008 16.3552 20.1411C16.4448 19.3292 16.7724 18.5619 17.2966 17.9355C17.8209 17.3091 18.5185 16.8515 19.3019 16.6202C19.6514 16.5131 20.0108 16.4412 20.3746 16.4057C20.6144 16.4057 20.6838 16.2732 20.6775 16.0523C20.6817 15.4213 20.688 14.803 20.6964 14.1972Z" fill="white"/>
</svg>
