<svg width="113" height="34" viewBox="0 0 113 34" fill="none" xmlns="http://www.w3.org/2000/svg">
<path d="M31.5291 0.0517578H2.87429C1.57916 0.0517578 0.499878 1.12586 0.499878 2.41477V30.771C0.499878 32.0599 1.57916 33.134 2.87429 33.134H31.5291C32.8243 33.134 33.9035 32.0599 33.9035 30.771V2.41477C33.9035 1.07215 32.8243 0.0517578 31.5291 0.0517578ZM21.4379 24.9171C18.5238 27.8172 13.8829 27.9246 10.807 25.2931L10.753 25.2394C10.5911 25.0783 10.5372 24.756 10.753 24.5412L21.1141 14.2836C21.33 14.1224 21.5998 14.1224 21.8156 14.2836C24.5138 17.3985 24.4059 22.0171 21.4379 24.9171ZM23.5964 8.53714L13.2354 18.7948C13.0195 18.9559 12.7497 18.9559 12.5338 18.7948C9.83564 15.7336 9.94356 11.115 12.8576 8.21491C15.7717 5.31484 20.4126 5.20743 23.4885 7.83897C23.4885 7.83897 23.5425 7.83897 23.5425 7.89268C23.8123 8.05379 23.8123 8.37602 23.5964 8.53714Z" fill="white"/>
<path fill-rule="evenodd" clip-rule="evenodd" d="M45.8004 16.9867C44.3434 16.3959 43.426 16.02 43.426 15.1607C43.426 14.4625 43.9657 13.8181 45.2068 13.8181C45.9623 13.8181 46.6099 14.1403 47.0956 14.7848C47.4194 15.1607 47.7431 15.3755 48.1209 15.3755C48.8764 15.3755 49.47 14.7848 49.47 14.0866C49.47 13.8181 49.416 13.5495 49.2541 13.3884C48.4447 12.1532 46.7718 11.2939 45.2068 11.2939C43.0483 11.2939 40.8358 12.6366 40.8358 15.2144C40.8358 17.8459 42.9943 18.7052 44.7751 19.3497C46.1782 19.8867 47.4194 20.3701 47.4194 21.4979C47.4194 22.3572 46.6099 23.2164 45.0989 23.2164C44.6132 23.2164 43.7498 23.109 43.1562 22.4109C42.8324 22.0349 42.4547 21.8738 42.1309 21.8738C41.4294 21.8738 40.7818 22.4646 40.7818 23.1627C40.7818 23.4312 40.8897 23.6998 41.0516 23.9146C41.8611 25.1498 43.6959 25.7406 45.0989 25.7406C47.4733 25.7406 50.0636 24.2368 50.0636 21.4979C50.0096 18.5978 47.6892 17.6848 45.8004 16.9867ZM99.3327 11.2402H99.2787C96.6884 11.2402 94.6378 13.281 94.6378 15.8051V31.7018C94.6378 32.4 95.2314 32.9907 95.9329 32.9907C96.6345 32.9907 97.2281 32.4 97.2281 31.7018V25.0961C97.7137 25.5257 98.5232 25.7406 99.2787 25.7406H99.3327C101.923 25.7406 103.866 23.5387 103.866 21.0145V15.6977C103.866 13.1736 101.923 11.2402 99.3327 11.2402ZM101.383 21.1219C101.383 22.5183 100.466 23.109 99.3866 23.109H99.3327C98.1994 23.109 97.336 22.5183 97.336 21.1219V15.8051C97.336 14.731 98.2534 13.8181 99.3327 13.8181H99.3866C100.52 13.8181 101.383 14.6773 101.383 15.8051V21.1219ZM75.4266 11.2402H75.3727C74.0775 11.2402 72.9443 11.7773 72.1348 12.5829C71.3254 11.7773 70.1382 11.2402 68.897 11.2402H68.843C66.3607 11.2402 64.3101 13.2273 64.3101 15.7514V24.5053C64.364 25.2035 64.9037 25.7406 65.6052 25.7406C66.3067 25.7406 66.8464 25.2035 66.9003 24.5053V15.7514C66.9003 14.6773 67.7638 13.8181 68.843 13.8181H68.897C69.9763 13.8181 70.7857 14.6236 70.8397 15.6977V24.5053C70.905 25.1401 71.354 25.7406 72.0809 25.7406C72.7824 25.7406 73.322 25.2035 73.376 24.5053V15.644C73.43 14.6236 74.2934 13.7644 75.3187 13.7644H75.3727C76.452 13.7644 77.3154 14.6236 77.3154 15.6977V24.5053C77.3693 25.2035 77.909 25.7406 78.6105 25.7406C79.312 25.7406 79.8517 25.2035 79.9056 24.5053V15.7514C79.9596 13.281 77.909 11.2402 75.4266 11.2402ZM60.1009 11.2402C59.3994 11.2402 58.8597 11.7773 58.8057 12.4754V21.2293C58.8057 22.3034 57.9423 23.1627 56.8091 23.1627H56.7551C55.6758 23.1627 54.7585 22.3034 54.7585 21.2293V12.4217C54.7045 11.7236 54.1649 11.1865 53.4633 11.1865C52.7618 11.1865 52.2221 11.7236 52.1682 12.4217V21.1756C52.1682 23.6461 54.2188 25.6869 56.7551 25.6869H56.8091C59.3454 25.6869 61.396 23.6461 61.396 21.1756V12.4754C61.396 11.7773 60.8024 11.2402 60.1009 11.2402ZM90.7524 11.2402C90.0509 11.2402 89.5112 11.7773 89.4573 12.4754V21.2293C89.4573 22.3034 88.5938 23.1627 87.4606 23.1627H87.4066C86.3274 23.1627 85.41 22.3034 85.41 21.2293V12.4217C85.356 11.7236 84.8164 11.1865 84.1148 11.1865C83.4133 11.1865 82.8737 11.7236 82.8197 12.4217V21.1756C82.8197 23.6461 84.8703 25.6869 87.4066 25.6869H87.4606C89.9969 25.6869 92.0475 23.6461 92.0475 21.1756V12.4754C91.9936 11.7773 91.4539 11.2402 90.7524 11.2402Z" fill="white"/>
<mask id="path-3-inside-1_1_370" fill="white">
<path d="M110.179 13.9255C110.503 13.8718 110.719 13.6033 110.719 13.281C110.719 12.8514 110.395 12.5829 109.91 12.5829H109.262C109.1 12.5829 108.992 12.6903 108.992 12.8514V14.6236C108.992 14.7848 109.1 14.8922 109.262 14.8922C109.424 14.8922 109.532 14.7848 109.532 14.6236V13.9792L110.179 14.7848C110.233 14.8922 110.287 14.8922 110.449 14.8922C110.665 14.8922 110.719 14.7311 110.719 14.6236C110.719 14.5162 110.665 14.4625 110.611 14.4088L110.179 13.9255ZM109.964 13.5495H109.64V13.0125H109.964C110.125 13.0125 110.233 13.1199 110.233 13.281C110.233 13.3884 110.125 13.5495 109.964 13.5495ZM109.91 11.2402C108.507 11.2402 107.319 12.368 107.319 13.8181C107.319 15.2144 108.453 16.3959 109.91 16.3959C111.313 16.3959 112.5 15.2681 112.5 13.8181C112.5 12.4217 111.367 11.2402 109.91 11.2402ZM109.91 15.7514C108.83 15.7514 107.967 14.8922 107.967 13.8181C107.967 12.744 108.83 11.8847 109.91 11.8847C110.989 11.8847 111.852 12.744 111.852 13.8181C111.852 14.8922 110.989 15.7514 109.91 15.7514Z"/>
</mask>
<path d="M110.179 13.9255C110.503 13.8718 110.719 13.6033 110.719 13.281C110.719 12.8514 110.395 12.5829 109.91 12.5829H109.262C109.1 12.5829 108.992 12.6903 108.992 12.8514V14.6236C108.992 14.7848 109.1 14.8922 109.262 14.8922C109.424 14.8922 109.532 14.7848 109.532 14.6236V13.9792L110.179 14.7848C110.233 14.8922 110.287 14.8922 110.449 14.8922C110.665 14.8922 110.719 14.7311 110.719 14.6236C110.719 14.5162 110.665 14.4625 110.611 14.4088L110.179 13.9255ZM109.964 13.5495H109.64V13.0125H109.964C110.125 13.0125 110.233 13.1199 110.233 13.281C110.233 13.3884 110.125 13.5495 109.964 13.5495ZM109.91 11.2402C108.507 11.2402 107.319 12.368 107.319 13.8181C107.319 15.2144 108.453 16.3959 109.91 16.3959C111.313 16.3959 112.5 15.2681 112.5 13.8181C112.5 12.4217 111.367 11.2402 109.91 11.2402ZM109.91 15.7514C108.83 15.7514 107.967 14.8922 107.967 13.8181C107.967 12.744 108.83 11.8847 109.91 11.8847C110.989 11.8847 111.852 12.744 111.852 13.8181C111.852 14.8922 110.989 15.7514 109.91 15.7514Z" fill="white"/>
<path d="M110.179 13.9255L110.016 12.939L108.223 13.2363L109.434 14.5916L110.179 13.9255ZM109.532 13.9792L110.311 13.3527L108.532 11.1391V13.9792H109.532ZM110.179 14.7848L111.073 14.3358L111.025 14.241L110.959 14.1582L110.179 14.7848ZM110.611 14.4088L109.865 15.075L109.885 15.0969L109.906 15.1176L110.611 14.4088ZM109.64 13.5495H108.64V14.5495H109.64V13.5495ZM109.64 13.0125V12.0125H108.64V13.0125H109.64ZM110.343 14.912C111.17 14.7749 111.719 14.0714 111.719 13.281H109.719C109.719 13.2163 109.742 13.1369 109.8 13.0664C109.86 12.9941 109.941 12.9514 110.016 12.939L110.343 14.912ZM111.719 13.281C111.719 12.7958 111.526 12.3349 111.145 12.01C110.781 11.6995 110.33 11.5829 109.91 11.5829V13.5829C109.975 13.5829 109.928 13.6005 109.847 13.5316C109.807 13.4968 109.771 13.4499 109.747 13.3959C109.723 13.3429 109.719 13.3006 109.719 13.281H111.719ZM109.91 11.5829H109.262V13.5829H109.91V11.5829ZM109.262 11.5829C108.955 11.5829 108.621 11.6889 108.361 11.9479C108.1 12.2074 107.992 12.5421 107.992 12.8514H109.992C109.992 12.9995 109.938 13.2 109.772 13.3655C109.606 13.5306 109.407 13.5829 109.262 13.5829V11.5829ZM107.992 12.8514V14.6236H109.992V12.8514H107.992ZM107.992 14.6236C107.992 14.9329 108.1 15.2677 108.361 15.5271C108.621 15.7862 108.955 15.8922 109.262 15.8922V13.8922C109.407 13.8922 109.606 13.9445 109.772 14.1095C109.938 14.275 109.992 14.4755 109.992 14.6236H107.992ZM109.262 15.8922C109.569 15.8922 109.903 15.7862 110.163 15.5271C110.424 15.2677 110.532 14.9329 110.532 14.6236H108.532C108.532 14.4755 108.586 14.275 108.752 14.1095C108.918 13.9445 109.117 13.8922 109.262 13.8922V15.8922ZM110.532 14.6236V13.9792H108.532V14.6236H110.532ZM108.752 14.6057L109.4 15.4113L110.959 14.1582L110.311 13.3527L108.752 14.6057ZM109.286 15.2337C109.383 15.4261 109.579 15.7018 109.959 15.8279C110.19 15.9046 110.442 15.8922 110.449 15.8922V13.8922C110.399 13.8922 110.398 13.8918 110.405 13.8922C110.413 13.8927 110.489 13.8964 110.589 13.9296C110.707 13.9689 110.826 14.0379 110.927 14.138C111.016 14.2262 111.059 14.3086 111.073 14.3358L109.286 15.2337ZM110.449 15.8922C110.841 15.8922 111.217 15.7277 111.464 15.4C111.675 15.1203 111.719 14.8178 111.719 14.6236H109.719C109.719 14.5369 109.737 14.3687 109.866 14.1963C109.938 14.102 110.035 14.0182 110.154 13.9617C110.271 13.9061 110.377 13.8922 110.449 13.8922V15.8922ZM111.719 14.6236C111.719 14.0747 111.38 13.7635 111.317 13.7L109.906 15.1176C109.946 15.1577 109.882 15.1012 109.829 15.0124C109.757 14.8937 109.719 14.756 109.719 14.6236H111.719ZM111.357 13.7427L110.925 13.2593L109.434 14.5916L109.865 15.075L111.357 13.7427ZM109.964 12.5495H109.64V14.5495H109.964V12.5495ZM110.64 13.5495V13.0125H108.64V13.5495H110.64ZM109.64 14.0125H109.964V12.0125H109.64V14.0125ZM109.964 14.0125C109.819 14.0125 109.62 13.9602 109.454 13.7951C109.288 13.6297 109.233 13.4292 109.233 13.281H111.233C111.233 12.9718 111.125 12.637 110.865 12.3775C110.604 12.1185 110.27 12.0125 109.964 12.0125V14.0125ZM109.233 13.281C109.233 13.043 109.33 12.8839 109.408 12.7953C109.503 12.6875 109.692 12.5495 109.964 12.5495V14.5495C110.397 14.5495 110.721 14.3311 110.91 14.1159C111.083 13.9199 111.233 13.6265 111.233 13.281H109.233ZM109.91 10.2402C107.972 10.2402 106.319 11.7977 106.319 13.8181H108.319C108.319 12.9383 109.041 12.2402 109.91 12.2402V10.2402ZM106.319 13.8181C106.319 15.7576 107.891 17.3959 109.91 17.3959V15.3959C109.014 15.3959 108.319 14.6712 108.319 13.8181H106.319ZM109.91 17.3959C111.847 17.3959 113.5 15.8384 113.5 13.8181H111.5C111.5 14.6978 110.779 15.3959 109.91 15.3959V17.3959ZM113.5 13.8181C113.5 11.8785 111.928 10.2402 109.91 10.2402V12.2402C110.805 12.2402 111.5 12.965 111.5 13.8181H113.5ZM109.91 14.7514C109.378 14.7514 108.967 14.3354 108.967 13.8181H106.967C106.967 15.449 108.283 16.7514 109.91 16.7514V14.7514ZM108.967 13.8181C108.967 13.3008 109.378 12.8847 109.91 12.8847V10.8847C108.283 10.8847 106.967 12.1872 106.967 13.8181H108.967ZM109.91 12.8847C110.441 12.8847 110.852 13.3008 110.852 13.8181H112.852C112.852 12.1872 111.537 10.8847 109.91 10.8847V12.8847ZM110.852 13.8181C110.852 14.3354 110.441 14.7514 109.91 14.7514V16.7514C111.537 16.7514 112.852 15.449 112.852 13.8181H110.852Z" fill="white" mask="url(#path-3-inside-1_1_370)"/>
</svg>
