<svg width="143" height="33" viewBox="0 0 143 33" fill="none" xmlns="http://www.w3.org/2000/svg">
<path d="M75.9024 0.424912C75.0531 0.666202 74.2382 1.30761 73.9509 2.16082C73.2623 4.20599 75.1326 6.28803 77.2319 5.69139C78.7523 5.25926 79.5391 3.66178 79.0685 2.16082C78.6869 0.943932 77.1352 0.0747124 75.9024 0.424912Z" fill="white"/>
<path d="M117.357 0.424912C116.555 0.652858 115.748 1.24715 115.441 2.03996C114.643 4.10067 116.54 6.30144 118.687 5.69139C120.207 5.25927 120.994 3.66178 120.524 2.16082C120.142 0.943932 118.59 0.0747125 117.357 0.424912Z" fill="white"/>
<path d="M0 2.40234V26.3331H4.95536V2.40234H0Z" fill="white"/>
<path d="M47.6204 3.36914V8.32451H45.2031V12.4338H47.6204V19.6856C47.6204 21.4418 47.548 23.1396 48.6237 24.641C50.0051 26.5691 52.5655 27.0294 54.7513 26.4347C55.3778 26.2641 56.5869 25.8686 56.8521 25.2089C56.9859 24.876 56.8282 24.4765 56.7248 24.1575C56.4873 23.4253 56.1376 22.7318 55.9599 21.982C55.2121 22.2312 54.3333 22.7229 53.5431 22.3229C52.471 21.7803 52.4549 20.5989 52.4549 19.5647V12.4338H56.3225V8.32451H52.4549V3.49C50.9059 3.49 49.1308 3.72874 47.6204 3.36914Z" fill="white"/>
<path d="M14.5032 10.5005V8.32494H9.54785V26.3335H14.5032V18.5983C14.5032 17.2699 14.2892 15.7447 14.8024 14.4889C15.7358 12.2052 18.9708 11.3463 20.7517 13.1817C21.9137 14.3793 21.8758 16.0814 21.8758 17.6314V26.3335H26.5895V17.5105C26.5895 15.737 26.7749 13.8982 26.202 12.1925C24.9471 8.45647 20.6435 7.07783 17.1622 8.50064C16.0665 8.94847 15.3717 9.7493 14.5032 10.5005Z" fill="white"/>
<path d="M30.9406 20.8946C30.2869 21.8637 29.2754 23.0149 29.0068 24.1579C29.9354 24.6748 30.803 25.2568 31.7867 25.6775C34.068 26.6531 36.7151 26.9629 39.1593 26.5192C42.713 25.8742 45.3914 22.5966 43.9855 18.9608C42.9714 16.3386 39.745 15.7079 37.3464 15.024C36.4751 14.7756 35.4043 14.6123 34.735 13.9415C33.9773 13.182 34.6532 12.2745 35.413 11.8696C36.5385 11.2699 37.8873 11.5628 39.0384 11.9513C40.0845 12.3042 41.0108 12.9774 42.06 13.2803C42.4973 12.5657 42.9066 11.8337 43.3195 11.1048C43.469 10.8407 43.7347 10.488 43.6533 10.1636C43.5644 9.80923 43.0735 9.64872 42.7852 9.50369C41.993 9.10545 41.2136 8.75724 40.3679 8.48737C36.9481 7.39603 31.8936 7.7072 30.2365 11.4673C29.9572 12.1009 29.854 12.7142 29.8529 13.4011C29.8518 14.1041 29.819 14.7836 30.0583 15.4558C30.9547 17.9742 33.9801 18.5672 36.2586 19.1843C37.3704 19.4854 40.5452 20.2046 39.5735 21.9776C39.0902 22.8596 37.9057 23.0796 36.9838 23.0679C34.7061 23.0392 32.9092 21.8257 30.9406 20.8946Z" fill="white"/>
<path d="M65.1446 11.5878C64.8486 10.5864 65.0237 9.36561 65.0237 8.3245H60.0684V26.333H65.0237V20.4108C65.0237 17.6748 64.8311 14.8881 67.441 13.1885C67.9316 12.8689 68.4554 12.6503 69.0122 12.4758C69.7353 12.2493 70.4351 12.1922 71.1877 12.1921V7.96191C68.6909 7.96357 66.2389 9.2746 65.1446 11.5878Z" fill="white"/>
<path d="M73.9678 8.44531V26.333H79.044V8.44531H73.9678Z" fill="white"/>
<path d="M115.424 8.44531V26.2121H120.379V8.44531H115.424Z" fill="white"/>
<path fill-rule="evenodd" clip-rule="evenodd" d="M96.4489 32.2553V23.9158C96.077 24.1777 95.7317 24.4513 95.3935 24.7193C94.3709 25.5296 93.4128 26.2888 91.977 26.5218C90.6447 26.7379 89.1668 26.7945 87.8677 26.3728C80.3846 23.9433 79.9914 10.9123 87.6259 8.36738C88.3695 8.11955 89.1383 7.96578 89.9223 7.962L89.9234 7.96199C90.7896 7.95781 91.6229 7.95379 92.4604 8.20839C93.9408 8.65838 94.898 9.50055 95.9829 10.455C96.1351 10.5889 96.2899 10.725 96.4489 10.8626V8.32449H101.404V32.2553H96.4489ZM87.9625 14.1259C88.7878 12.9733 90.0026 12.4242 91.3722 12.2443C91.7696 12.1921 92.1463 12.2484 92.5387 12.3071C92.5527 12.3092 92.5667 12.3113 92.5808 12.3134C97.4315 13.0373 97.6531 21.5944 92.7017 22.3083C91.6879 22.4544 90.4854 22.4008 89.5593 21.9362C86.9183 20.6116 86.3059 16.439 87.9625 14.1259Z" fill="white"/>
<path fill-rule="evenodd" clip-rule="evenodd" d="M126.906 10.079C128.486 8.82346 130.258 8.27478 132.224 8.01337C137.987 7.24739 143.528 12.2473 142.96 18.1145C142.809 19.6722 142.236 21.1744 141.366 22.4656C140.666 23.5037 139.798 24.355 138.751 25.0404C137.344 25.9609 135.821 26.4624 134.158 26.6613C128.025 27.3947 122.451 21.8556 123.532 15.6973C123.701 14.7336 124.008 13.7791 124.477 12.9174C125.064 11.8383 125.946 10.8415 126.906 10.079ZM132.224 22.3053C127.094 21.4489 127.121 13.4322 132.103 12.3757C132.757 12.2371 133.625 12.2371 134.278 12.3757C139.264 13.4333 139.262 21.219 134.278 22.2821C133.656 22.4149 132.851 22.4101 132.224 22.3053Z" fill="white"/>
<path d="M108.293 20.4661C107.688 20.5465 107.097 20.7489 106.603 21.1109C103.985 23.0266 106.005 27.0402 109.018 26.6739C112.851 26.2077 112.132 19.9558 108.293 20.4661Z" fill="white"/>
</svg>
