<svg width="109" height="24" viewBox="0 0 109 24" fill="none" xmlns="http://www.w3.org/2000/svg">
<path d="M65.9053 0.00207903C62.7277 -0.012467 59.674 1.234 57.4142 3.46805C55.1544 5.70209 53.873 8.74128 53.8511 11.9189C53.8521 15.1152 55.1225 18.1803 57.383 20.44C59.6435 22.6998 62.709 23.9693 65.9053 23.9693C69.1016 23.9693 72.1671 22.6998 74.4276 20.44C76.6881 18.1803 77.9585 15.1152 77.9595 11.9189C77.9376 8.74128 76.6562 5.70209 74.3964 3.46805C72.1366 1.234 69.083 -0.0124676 65.9053 0.00207903ZM65.9053 18.2128C64.6634 18.1987 63.4535 17.8175 62.4278 17.1173C61.402 16.4171 60.6064 15.4291 60.1409 14.2776C59.6755 13.1262 59.561 11.8628 59.812 10.6465C60.0629 9.43017 60.6681 8.31526 61.5513 7.4421C62.4345 6.56894 63.5562 5.97655 64.7753 5.7395C65.9945 5.50245 67.2565 5.63133 68.4025 6.10991C69.5485 6.5885 70.5274 7.3954 71.2158 8.42906C71.9043 9.46272 72.2716 10.6769 72.2715 11.9189C72.2668 12.7502 72.0984 13.5724 71.7759 14.3386C71.4534 15.1048 70.9831 15.7999 70.392 16.3844C69.8008 16.9688 69.1003 17.4311 68.3305 17.7448C67.5607 18.0585 66.7366 18.2176 65.9053 18.2128Z" fill="white"/>
<path d="M94.4655 0.00207799C90.8703 -0.0129022 87.4159 1.39824 84.8595 3.92615C82.3032 6.45405 80.8534 9.89245 80.8281 13.4875C80.8255 15.2609 81.1771 17.017 81.8623 18.6526C82.5474 20.2883 83.5524 21.7707 84.8181 23.0128C85.3541 23.5395 86.0756 23.8347 86.8271 23.8347C87.5787 23.8347 88.3001 23.5395 88.8362 23.0128C89.0999 22.7532 89.3094 22.4438 89.4524 22.1024C89.5954 21.7611 89.6691 21.3947 89.6691 21.0247C89.6691 20.6546 89.5954 20.2882 89.4524 19.9469C89.3094 19.6056 89.0999 19.2961 88.8362 19.0365C88.0986 18.3111 87.5128 17.4461 87.113 16.4919C86.7131 15.5378 86.5072 14.5136 86.5072 13.4791C86.5072 12.4446 86.7131 11.4204 87.113 10.4663C87.5128 9.51214 88.0986 8.64715 88.8362 7.92171C90.3354 6.44671 92.3543 5.62007 94.4575 5.62007C96.5606 5.62007 98.5795 6.44671 100.079 7.92171C100.816 8.64715 101.402 9.51214 101.802 10.4663C102.202 11.4204 102.408 12.4446 102.408 13.4791C102.408 14.5136 102.202 15.5378 101.802 16.4919C101.402 17.4461 100.816 18.3111 100.079 19.0365C99.815 19.296 99.6055 19.6054 99.4626 19.9467C99.3196 20.2879 99.2459 20.6543 99.2459 21.0243C99.2459 21.3943 99.3196 21.7606 99.4626 22.1018C99.6055 22.4431 99.815 22.7525 100.079 23.012C100.615 23.5387 101.336 23.8339 102.088 23.8339C102.839 23.8339 103.561 23.5387 104.097 23.012C105.366 21.7715 106.374 20.2899 107.062 18.6543C107.75 17.0187 108.105 15.262 108.104 13.4875C108.079 9.89217 106.629 6.45353 104.072 3.92558C101.516 1.39763 98.0609 -0.013329 94.4655 0.00207799Z" fill="white"/>
<path d="M13.6382 0.00207457C10.0429 -0.013119 6.58825 1.39793 4.0317 3.92586C1.47515 6.45379 0.0252974 9.8923 1.30991e-05 13.4875C-0.00247354 15.2606 0.349098 17.0163 1.03411 18.6517C1.71912 20.2871 2.72377 21.7692 3.98916 23.0112C4.52521 23.5379 5.24668 23.833 5.9982 23.833C6.74972 23.833 7.47119 23.5379 8.00724 23.0112C8.27101 22.7516 8.4805 22.4422 8.62349 22.1008C8.76648 21.7595 8.84012 21.3931 8.84012 21.023C8.84012 20.653 8.76648 20.2866 8.62349 19.9453C8.4805 19.6039 8.27101 19.2945 8.00724 19.0349C7.26956 18.3094 6.68368 17.4444 6.28376 16.4902C5.88384 15.536 5.67787 14.5117 5.67787 13.4771C5.67787 12.4425 5.88384 11.4182 6.28376 10.464C6.68368 9.50979 7.26956 8.64474 8.00724 7.91929C9.5066 6.44424 11.5256 5.61758 13.6289 5.61758C15.7322 5.61758 17.7513 6.44424 19.2506 7.91929C19.9883 8.64474 20.5742 9.50979 20.9741 10.464C21.374 11.4182 21.58 12.4425 21.58 13.4771C21.58 14.5117 21.374 15.536 20.9741 16.4902C20.5742 17.4444 19.9883 18.3094 19.2506 19.0349C18.9868 19.2945 18.7774 19.6039 18.6344 19.9453C18.4914 20.2866 18.4177 20.653 18.4177 21.023C18.4177 21.3931 18.4914 21.7595 18.6344 22.1008C18.7774 22.4422 18.9868 22.7516 19.2506 23.0112C19.7867 23.5379 20.5081 23.833 21.2597 23.833C22.0112 23.833 22.7326 23.5379 23.2687 23.0112C24.5374 21.7708 25.5455 20.2893 26.2337 18.6539C26.9219 17.0184 27.2764 15.2619 27.2763 13.4875C27.251 9.8923 25.8012 6.45379 23.2446 3.92586C20.6881 1.39793 17.2335 -0.0131193 13.6382 0.00207457Z" fill="white"/>
<path d="M50.7413 7.28759C50.9993 7.02239 51.202 6.70848 51.3375 6.36417C51.473 6.01985 51.5386 5.652 51.5306 5.28207C51.5225 4.91213 51.4409 4.5475 51.2904 4.20943C51.14 3.87135 50.9238 3.56659 50.6545 3.31291C48.9505 1.69769 46.8128 0.614037 44.5027 0.194463C42.1927 -0.225111 39.8104 0.0375835 37.6473 0.950423C35.4842 1.86326 33.634 3.38668 32.3229 5.33436C31.0118 7.28205 30.2968 9.56959 30.2651 11.9172C30.2968 14.2649 31.0118 16.5524 32.3229 18.5001C33.634 20.4478 35.4842 21.9712 37.6473 22.884C39.8104 23.7969 42.1927 24.0595 44.5027 23.64C46.8128 23.2204 48.9505 22.1367 50.6545 20.5215C50.9238 20.2678 51.14 19.9631 51.2904 19.625C51.4409 19.2869 51.5225 18.9223 51.5306 18.5524C51.5386 18.1824 51.473 17.8146 51.3375 17.4703C51.202 17.126 50.9993 16.812 50.7413 16.5468C50.2165 16.0086 49.5012 15.6981 48.7496 15.6821C47.9981 15.6662 47.2703 15.9462 46.7232 16.4617C45.5094 17.607 43.8973 18.2346 42.2286 18.2114C40.5599 18.1881 38.9659 17.5158 37.7846 16.3371C37.2033 15.7572 36.7421 15.0683 36.4274 14.3098C36.1127 13.5514 35.9507 12.7383 35.9507 11.9172C35.9507 11.0961 36.1127 10.283 36.4274 9.52461C36.7421 8.76618 37.2033 8.07727 37.7846 7.49733C38.9659 6.3186 40.5599 5.64633 42.2286 5.62308C43.8973 5.59983 45.5094 6.22741 46.7232 7.37277C47.2703 7.88837 47.9982 8.1683 48.7498 8.15222C49.5015 8.13613 50.2167 7.82532 50.7413 7.28679V7.28759Z" fill="white"/>
<path d="M42.3336 14.7281C43.9029 14.7194 45.1682 13.4545 45.1596 11.903C45.151 10.3514 43.8718 9.1006 42.3025 9.10928C40.7331 9.11796 39.4679 10.3828 39.4765 11.9344C39.4851 13.486 40.7642 14.7368 42.3336 14.7281Z" fill="white"/>
</svg>
