<svg width="111" height="31" viewBox="0 0 111 31" fill="none" xmlns="http://www.w3.org/2000/svg">
<path d="M15.633 28.6633C13.9881 28.9538 12.3021 29.0368 10.5545 29.2857L5.22922 13.5803V29.9496L0.500244 30.5928V0.592773H4.9208L10.9657 17.6052V0.592773H15.633V28.6633ZM24.7619 11.5886L30.9713 11.5056V16.1944L24.7619 16.2567V23.2276L32.9862 22.7297V27.2525L20.1152 28.2691V0.592773H32.9862V5.28157H24.7619V11.5886ZM50.2573 5.28157H45.446V26.8376L40.7993 26.8998V5.28157H35.9881V0.592773H50.2573V5.28157ZM57.8031 11.2567H64.1563V15.9455H57.8031V26.5886H53.2386V0.592773H66.2124V5.28157H57.8031V11.2567ZM73.7787 22.4807L81.6741 22.8957V27.5222L69.132 26.8998V0.592773H73.7787V22.4807ZM85.5806 27.8334L90.1451 28.1861V0.592773H85.5806V27.8334ZM110.5 0.592773L104.599 14.8666L110.5 30.5928L105.278 29.7421L101.947 21.07L98.5545 29.0368L93.5582 28.4144L99.5414 14.6799L94.1339 0.592773H99.1301L102.173 8.47659L105.422 0.592773H110.5Z" fill="white"/>
</svg>
