<svg width="97" height="47" viewBox="0 0 97 47" fill="none" xmlns="http://www.w3.org/2000/svg">
<path d="M16.191 0.291079C17.3926 0.873831 18.0685 2.02667 18.0685 3.45821C18.0685 4.88975 17.7931 5.28248 14.8518 8.19624C10.5336 12.4655 6.21542 16.6461 5.50198 17.2542C4.17524 18.3944 2.64823 18.5084 1.28394 17.5709C0.507921 17.0262 0.0948788 16.2407 0.0197798 15.1639C-0.0803516 13.7831 0.144944 13.3777 1.98486 11.4394C7.07906 6.09326 12.5863 0.569787 13.112 0.291079C13.6252 0.0123719 13.8379 -0.0256346 14.7016 0.0123719C15.3649 0.0377085 15.8656 0.126388 16.191 0.291079Z" fill="white"/>
<path d="M22.7747 11.452C24.4394 12.4022 25.0652 14.3531 24.2767 16.1521C24.0639 16.6335 22.7997 17.989 18.106 22.7397L12.2108 28.7319L15.7279 28.7573L19.2576 28.7953L12.361 35.953H7.76746C2.66075 35.953 2.33532 35.915 1.34652 35.1549C1.00858 34.9015 0.670635 34.4581 0.432823 33.9894C0.107395 33.3559 0.05733 33.1152 0.0698463 32.2918C0.0698463 31.5443 0.132428 31.2023 0.357724 30.7589C0.557987 30.3662 2.51055 28.3012 6.54085 24.2093L12.4361 18.217L8.96904 18.1917L5.50198 18.1537L8.95652 14.5685L12.4236 10.9833L22.0863 11.0593L22.7747 11.452Z" fill="white"/>
<path d="M50.5737 11.3507C51.5375 11.8574 52.0006 12.6429 52.0006 13.7704C51.9881 14.2898 51.913 14.7459 51.7878 14.9866C51.6752 15.1893 49.0217 18.6731 45.88 22.7144L40.1725 30.0621L49.998 30.1888L50.5987 30.5435C51.4624 31.0629 51.8629 31.7344 51.913 32.7858C51.9881 34.002 51.4749 34.9015 50.411 35.4589C49.9729 35.6869 49.5724 35.6996 41.7621 35.6996H33.5764L33.0507 35.4082C32.7503 35.2562 32.3372 34.8888 32.1245 34.5848C31.799 34.1287 31.7239 33.9007 31.6864 33.1912C31.6488 32.6212 31.6989 32.1904 31.8241 31.899C31.9242 31.6583 34.6027 28.1238 37.7694 24.0446L43.5395 16.6335L38.6956 16.5701C38.5517 16.5681 38.4118 16.5661 38.2758 16.5642C34.4911 16.5107 33.6985 16.4995 33.1646 16.1177C33.0232 16.0166 32.8999 15.8895 32.744 15.7287C32.7257 15.7098 32.707 15.6905 32.6877 15.6707C32.3122 15.2906 31.9117 14.3025 31.9117 13.7831C31.9117 13.2636 32.3122 12.2755 32.6877 11.8954C32.7219 11.8594 32.7542 11.8248 32.7852 11.7915C32.9001 11.6683 32.9973 11.5642 33.107 11.4762C33.7074 10.9946 34.685 10.9948 41.0098 10.9959C41.3262 10.9959 41.6561 10.996 41.9999 10.996H49.9103L50.5737 11.3507Z" fill="white"/>
<path d="M59.0223 11.452C59.4604 11.7181 59.7232 12.0095 59.9736 12.5035L60.324 13.175L60.324 20.7986C60.3235 26.875 60.3235 27.9806 60.8439 28.701C60.9597 28.8612 61.1012 29.0024 61.2742 29.175C61.291 29.1917 61.308 29.2087 61.3253 29.226C62.1139 30.0241 63.0276 30.3915 64.4419 30.4802C66.1442 30.5815 67.5836 30.1128 68.5098 29.1753C68.5592 29.1253 68.6059 29.0793 68.6499 29.036C68.7736 28.9141 68.8767 28.8126 68.9629 28.698C69.3947 28.124 69.4024 27.2232 69.449 21.8102C69.4527 21.3806 69.4566 20.9226 69.461 20.434C69.4653 19.9623 69.4691 19.5189 69.4727 19.102C69.5195 13.6404 69.5273 12.726 69.9735 12.1756C70.0632 12.065 70.1706 11.969 70.2996 11.8538C70.3467 11.8117 70.3967 11.767 70.4498 11.7181C71.8016 10.4892 74.042 10.8946 74.8681 12.5162L75.2311 13.2003L75.156 28.6686L74.793 29.7327C73.5038 33.4446 70.0994 35.7756 65.5809 36.0417C63.1778 36.181 60.7245 35.6236 58.8846 34.5341C57.633 33.7867 56.2562 32.3298 55.6053 31.0503C54.6416 29.1373 54.629 29.036 54.629 20.5607C54.629 13.1496 54.629 13.0863 54.9044 12.5795C55.4927 11.4647 56.3688 10.9706 57.6455 11.034C58.2463 11.0593 58.5592 11.1607 59.0223 11.452Z" fill="white"/>
<path fill-rule="evenodd" clip-rule="evenodd" d="M91.4399 11.414C94.0934 12.3135 96.071 14.4418 96.7469 17.1529C97.0598 18.3817 97.0848 20.8394 96.8095 21.9543C96.1211 24.678 94.1685 26.8063 91.5776 27.6804C90.5763 28.0098 90.4511 28.0225 87.2719 28.0732L83.9801 28.1112V30.7969C83.9801 33.1406 83.9426 33.546 83.7423 33.9894C83.2792 35.0028 82.353 35.5729 81.1639 35.5729C79.9874 35.5729 79.1237 35.0408 78.5605 33.9894L78.2851 33.4826V13.0863L78.5605 12.5542C78.8859 11.9588 79.5117 11.3887 80.125 11.1607C80.4254 11.0467 81.8273 11.0086 85.4821 11.034L90.4261 11.072L91.4399 11.414ZM83.9801 22.5243V16.5701H86.5835C89.0492 16.5701 89.1994 16.5828 89.8127 16.8742C90.8641 17.3683 91.4148 18.3437 91.4023 19.6613C91.3898 21.0041 90.6013 22.0809 89.4122 22.385C89.1243 22.461 87.7726 22.5243 86.4333 22.5243H83.9801Z" fill="white"/>
<path d="M22.4743 28.9219C23.8135 29.3273 24.6772 30.5308 24.6897 32.0257L24.69 32.0599C24.6921 32.2964 24.6938 32.494 24.6674 32.6876C24.5338 33.6697 23.6779 34.5512 18.4806 39.9038L18.3313 40.0576C15.1146 43.3641 12.2859 46.2145 12.0231 46.3918C11.3472 46.8606 10.9091 46.9999 10.0705 46.9999C8.03031 47.0126 6.52833 45.4037 6.6535 43.3387C6.74111 41.8185 6.79118 41.7552 12.386 36.2697C18.5066 30.2901 19.4078 29.4287 19.9334 29.15C20.772 28.7192 21.5481 28.6432 22.4743 28.9219Z" fill="white"/>
</svg>
