<svg width="155" height="24" viewBox="0 0 155 24" fill="none" xmlns="http://www.w3.org/2000/svg">
<path d="M17.6101 18.5205V22.7222H0V0H17.1899V4.22511H5.23354V9.16452H15.7893V13.2589H5.23354V18.5205H17.6101Z" fill="white"/>
<path d="M28.9695 17.3818L25.1365 22.746H19.3848L26.3224 13.9316L28.9695 17.3818Z" fill="white"/>
<path d="M28.9688 17.3813L32.9324 22.7455H38.4554L31.7793 14.0059L28.9688 17.3813Z" fill="white"/>
<path d="M19.6455 5.26622H25.0378L28.838 10.3644L37.8158 0H43.4789L28.9688 17.3813L19.6455 5.26622Z" fill="white"/>
<path d="M40.2148 11.2702V22.7457H45.285V5.26172L40.2148 11.2702Z" fill="white"/>
<path d="M77.597 6.93717C78.8856 8.22571 79.5299 10.1585 79.5299 12.7356V22.7452H74.4597V13.5386C74.4597 12.1536 74.1734 11.1203 73.6007 10.4386C73.297 10.0912 72.9178 9.81805 72.4921 9.64C72.0664 9.46196 71.6056 9.38381 71.145 9.41154C70.6225 9.3899 70.1015 9.48178 69.6179 9.68085C69.1343 9.87993 68.6997 10.1815 68.3438 10.5647C67.6466 11.3366 67.2996 12.4804 67.3027 13.9961V22.7452H62.2139V13.5386C62.2139 10.7872 61.109 9.41154 58.8992 9.41154C58.3764 9.388 57.8549 9.47902 57.371 9.67821C56.8871 9.8774 56.4527 10.18 56.098 10.5647C55.407 11.335 55.0569 12.4788 55.0569 13.9961V22.7452H49.9961V5.26113H54.8375V7.27798C55.4928 6.54283 56.3093 5.9692 57.2231 5.60194C58.2097 5.20554 59.2646 5.00724 60.3278 5.01836C61.4846 5.00174 62.6298 5.25091 63.6752 5.74666C64.6557 6.22382 65.4872 6.96 66.0795 7.87556C66.7995 6.96296 67.7304 6.23881 68.792 5.76534C69.9205 5.25928 71.1455 5.00441 72.3822 5.01836C74.5702 5.00902 76.3085 5.64862 77.597 6.93717Z" fill="white"/>
<path d="M84.0771 5.26172H89.1706V22.7457H84.0771V5.26172Z" fill="white"/>
<path d="M107.149 6.93774C108.603 8.22628 109.328 10.17 109.325 12.7689V22.7457H104.577V20.5655C103.643 22.1902 101.869 23.0025 99.2546 23.0025C98.0533 23.033 96.8598 22.8004 95.7578 22.3209C94.8426 21.9276 94.0598 21.2794 93.5029 20.4534C92.9787 19.6402 92.7073 18.6897 92.7232 17.7223C92.6942 16.9823 92.8462 16.2465 93.1659 15.5786C93.4856 14.9106 93.9635 14.3308 94.558 13.8893C95.7812 12.9556 97.6704 12.4887 100.226 12.4887H104.255C104.283 12.0158 104.207 11.5424 104.034 11.1014C103.861 10.6605 103.593 10.2625 103.251 9.935C102.579 9.34053 101.57 9.04329 100.226 9.04329C99.2932 9.04305 98.3665 9.19118 97.4806 9.48214C96.6526 9.73577 95.8774 10.1376 95.1929 10.668L93.3722 7.11515C94.4161 6.40189 95.5754 5.87435 96.7989 5.55582C98.1371 5.18694 99.5192 5.00162 100.907 5.00493C103.615 5.00493 105.696 5.6492 107.149 6.93774ZM102.826 18.9921C103.499 18.5924 104.006 17.9645 104.255 17.2227V15.4346H100.781C98.6991 15.4346 97.6626 16.1163 97.6626 17.4795C97.6525 17.7798 97.7166 18.078 97.8494 18.3476C97.9821 18.6171 98.1794 18.8498 98.4236 19.0248C99.0411 19.4404 99.7764 19.6451 100.52 19.6084C101.331 19.6186 102.129 19.4054 102.826 18.9921Z" fill="white"/>
<path d="M118.752 21.6528C116.955 20.7045 115.455 19.2799 114.414 17.535C113.348 15.7366 112.802 13.6776 112.836 11.5872C112.803 9.49831 113.349 7.44099 114.414 5.64402C115.455 3.8992 116.955 2.47453 118.752 1.52629C120.662 0.523218 122.794 0.0144334 124.952 0.0463347C126.752 0.0205217 128.539 0.367018 130.199 1.0641C131.726 1.71732 133.077 2.72377 134.139 4.00067L130.82 7.05862C130.142 6.23051 129.287 5.56554 128.317 5.11297C127.347 4.6604 126.288 4.43183 125.218 4.44419C123.925 4.42854 122.65 4.75038 121.52 5.37791C120.452 5.96545 119.573 6.84466 118.985 7.91298C118.359 9.04395 118.037 10.318 118.051 11.6105C118.035 12.9048 118.357 14.181 118.985 15.3128C119.573 16.3811 120.452 17.2603 121.52 17.8478C122.65 18.4754 123.925 18.7972 125.218 18.7816C126.291 18.793 127.353 18.5608 128.323 18.1022C129.294 17.6437 130.147 16.9709 130.82 16.1344L134.139 19.141C133.08 20.4355 131.724 21.4542 130.185 22.1103C128.519 22.806 126.729 23.1524 124.924 23.128C122.775 23.1597 120.653 22.6525 118.752 21.6528Z" fill="white"/>
<path d="M140.469 21.8492C139.054 21.1285 137.866 20.0296 137.038 18.6745C136.201 17.2631 135.774 15.6464 135.805 14.0059C135.775 12.3654 136.202 10.7489 137.038 9.33722C137.864 7.9746 139.052 6.86764 140.469 6.13921C142.008 5.38204 143.701 4.98828 145.416 4.98828C147.131 4.98828 148.823 5.38204 150.362 6.13921C151.772 6.87106 152.953 7.97764 153.775 9.33722C154.608 10.7499 155.031 12.3663 154.998 14.0059C155.029 15.6464 154.602 17.2631 153.766 18.6745C152.945 20.0351 151.764 21.142 150.353 21.8725C148.814 22.6297 147.121 23.0234 145.406 23.0234C143.691 23.0234 141.999 22.6297 140.46 21.8725L140.469 21.8492ZM148.625 17.5307C149.485 16.564 149.93 15.2977 149.863 14.0059C149.927 12.7118 149.477 11.4447 148.611 10.481C148.201 10.0481 147.703 9.70692 147.151 9.48001C146.599 9.2531 146.005 9.14557 145.409 9.16448C144.81 9.14653 144.215 9.25444 143.661 9.48123C143.106 9.70802 142.606 10.0486 142.192 10.481C141.761 10.9567 141.428 11.5131 141.213 12.1181C140.999 12.7232 140.906 13.3648 140.941 14.0059C140.909 14.6478 141.004 15.2898 141.221 15.8948C141.438 16.4997 141.773 17.0557 142.206 17.5307C142.62 17.9631 143.12 18.3037 143.675 18.5305C144.229 18.7573 144.824 18.8652 145.423 18.8472C146.019 18.8661 146.613 18.7586 147.165 18.5317C147.717 18.3048 148.215 17.9636 148.625 17.5307Z" fill="white"/>
</svg>
