<svg width="156" height="21" viewBox="0 0 156 21" fill="none" xmlns="http://www.w3.org/2000/svg">
<path fill-rule="evenodd" clip-rule="evenodd" d="M0.499878 20.7058V0.47998H20.804V20.7058H17.7891V20.705L17.7883 20.7058L10.5496 13.4949L12.6952 11.3586L17.7891 16.4332V3.48226H3.52406V17.6833H9.69205V20.7058H0.499878Z" fill="white"/>
<path d="M43.1864 10.1716C43.1725 8.5138 42.6668 6.89747 41.7332 5.52746C40.7976 4.15496 39.477 3.08987 37.9374 2.46622C36.3958 1.8415 34.7042 1.68531 33.0743 2.01722C31.4456 2.34824 29.951 3.15298 28.7781 4.33043C27.6075 5.50558 26.8119 7.00161 26.4919 8.62915C26.1725 10.2554 26.3434 11.9398 26.983 13.4687C27.6239 14.9999 28.7041 16.307 30.0872 17.2249C31.4724 18.1445 33.0981 18.635 34.7608 18.6351C36.3259 18.6435 37.8633 18.2248 39.2078 17.4254L41.665 19.8835L43.6539 17.9013L41.3062 15.5528C42.5356 14.03 43.1999 12.1286 43.1864 10.1716ZM37.1085 15.3439C36.3807 15.7078 35.5754 15.8914 34.7608 15.8796C31.5774 15.8796 29.5177 13.3625 29.5177 10.1716C29.5177 6.98059 31.5774 4.46352 34.7608 4.46352C37.9442 4.46352 40.0038 7.0008 40.0038 10.1716C40.0128 11.288 39.7316 12.3876 39.1875 13.3625L36.78 10.9643L34.7911 12.9464L34.9006 13.0559L37.1085 15.3447V15.3439ZM52.2 12.9169C52.2 14.7896 51.1251 16.2065 49.5237 16.2065C48.111 16.2065 47.395 15.2158 47.395 13.3128V6.75314H44.5199V13.6894C44.5199 16.9006 45.7439 18.6443 48.4993 18.6443C49.2931 18.609 50.0618 18.3554 50.7207 17.9115C51.3788 17.4675 51.901 16.85 52.2294 16.1273V18.2981H55.1247V6.75314H52.2V12.9169ZM59.9196 6.75314H57.0445V18.3074H59.9196V6.75314ZM59.9196 2.08545H57.0445V4.94958H59.9196V2.08545ZM68.4446 6.40608C67.6535 6.44303 66.888 6.69782 66.2325 7.14233C65.5779 7.58591 65.0591 8.20236 64.7339 8.92314V6.75314H61.8992V18.3074H64.7743V12.1335C64.7743 10.2415 65.7683 8.85407 67.4194 8.85407C68.833 8.85407 69.768 9.84472 69.768 11.7376V18.3082H72.6625V11.3711C72.6625 8.15994 71.2001 6.41619 68.4446 6.41619M77.2485 3.37347H74.3944V15.4441C74.3476 15.8324 74.3901 16.2263 74.5187 16.5957C74.6473 16.965 74.8587 17.3001 75.1366 17.5753C75.4149 17.8519 75.7524 18.0616 76.1237 18.1886C76.495 18.3156 76.8902 18.3565 77.2796 18.3082H80.4529V15.8105H78.0858C77.9239 15.8316 77.7596 15.7969 77.62 15.7123C77.4804 15.6276 77.3737 15.498 77.3175 15.3447C77.2809 15.2431 77.2679 15.1345 77.2796 15.0271V9.08151H80.4529V6.70344H77.2493V3.37347H77.2485Z" fill="white"/>
<path d="M86.9579 6.37679C85.7284 6.33502 84.5143 6.66024 83.4704 7.31101C82.4282 7.96047 81.6039 8.9065 81.1033 10.0277C80.6031 11.1478 80.4504 12.3922 80.6649 13.6C80.8793 14.8078 81.451 15.9236 82.3062 16.8031C83.1635 17.6847 84.2635 18.2914 85.4666 18.5461C86.6696 18.8008 87.9212 18.692 89.0622 18.2335C90.2024 17.7751 91.18 16.987 91.8699 15.9699C92.5578 14.9547 92.926 13.7568 92.9271 12.5305C92.966 11.729 92.8399 10.9281 92.5566 10.1773C92.2733 9.42659 91.8389 8.74202 91.2802 8.16604C90.7201 7.58837 90.0477 7.13152 89.3043 6.82366C88.5609 6.51579 87.7624 6.36343 86.9579 6.37596V6.37679ZM86.9579 16.0879C85.2672 16.0879 83.8941 14.8395 83.8941 12.5305C83.8941 10.2215 85.2672 8.94272 86.9579 8.94272C88.6494 8.94272 90.0419 10.2114 90.0419 12.5305C90.0419 14.8496 88.6789 16.0879 86.9579 16.0879ZM99.1144 2.12524L92.8175 18.3076H96.0506L97.5324 14.1655H104.288L105.79 18.3084H109.023L102.706 2.12524H99.1144ZM98.3883 11.7875L100.895 4.85038L103.432 11.7875H98.3883ZM116.335 6.40628C115.542 6.44463 114.776 6.6999 114.119 7.14422C113.463 7.58772 112.943 8.20328 112.614 8.92334L112.663 6.75334H109.839V18.3076H112.713V12.1337C112.713 10.2417 113.708 8.85427 115.36 8.85427C116.773 8.85427 117.708 9.84492 117.708 11.7378V18.3084H120.602V11.3713C120.602 8.16014 119.14 6.41639 116.384 6.41639M131.068 8.71528C130.714 8.0135 130.17 7.42511 129.498 7.01696C128.826 6.60881 128.053 6.39724 127.267 6.40628C124.034 6.40628 121.856 9.24008 121.856 12.5507C121.856 15.8604 124.034 18.6547 127.267 18.6547C128.06 18.6434 128.835 18.4207 129.513 18.0094C130.19 17.5984 130.744 17.0138 131.118 16.3162V18.2983H133.992V2.12524H131.118L131.068 8.71528ZM127.984 16.1578C127.538 16.1328 127.1 16.0189 126.699 15.8229C126.297 15.6269 125.938 15.3527 125.643 15.0164C125.35 14.6806 125.126 14.2894 124.987 13.8658C124.847 13.4423 124.794 12.9951 124.83 12.5507C124.775 11.8767 124.924 11.2017 125.256 10.6127C125.588 10.0237 126.089 9.54773 126.694 9.24598C127.097 9.04468 127.535 8.92501 127.984 8.89386C128.89 8.96185 129.732 9.38444 130.328 10.0698C130.922 10.7541 131.22 11.6464 131.157 12.5507C131.206 13.2218 131.052 13.892 130.715 14.4747C130.379 15.0575 129.876 15.5261 129.27 15.82C128.868 16.0162 128.431 16.1308 127.984 16.157V16.1578ZM141.006 6.37679C137.822 6.37679 135.922 8.24943 135.554 9.9637L138.429 10.4691C138.599 9.946 138.936 9.49317 139.388 9.18027C139.842 8.86709 140.385 8.71089 140.936 8.73549C141.248 8.7212 141.559 8.77388 141.849 8.88999C142.138 9.00609 142.4 9.18291 142.616 9.40856C142.83 9.63372 142.994 9.90258 143.096 10.1968C143.198 10.491 143.235 10.8037 143.204 11.1136V12.5802C142.25 11.7528 141.014 11.3237 139.752 11.3814C137.315 11.3814 135.415 12.7385 135.415 14.9582C135.415 17.1788 137.016 18.6353 139.494 18.6353C140.229 18.6738 140.962 18.5248 141.624 18.2023C142.285 17.8802 142.853 17.3948 143.273 16.7921L143.204 18.268H146.089V10.8667C146.089 8.00261 144.159 6.33805 141.006 6.33805V6.37679ZM140.677 16.5445C139.096 16.5445 138.36 15.761 138.36 14.9287C138.36 14.0965 139.076 13.2339 140.677 13.2339C142.12 13.2339 143.254 13.8589 143.254 14.7401C143.254 15.622 142.14 16.5445 140.677 16.5445ZM154.396 6.56465C153.542 6.59916 152.722 6.90686 152.057 7.44242C151.392 7.97692 150.918 8.71172 150.705 9.53745H150.626L150.784 6.7028H147.91V18.2579H150.784V13.4714C150.784 10.2114 152.505 9.28978 154.176 9.28978H155.5V6.63373C155.132 6.57215 154.759 6.54227 154.385 6.54443" fill="white"/>
</svg>
