<svg width="108" height="28" viewBox="0 0 108 28" fill="none" xmlns="http://www.w3.org/2000/svg">
<path d="M69.1716 9.10229C71.0282 9.10229 72.2979 10.2851 72.6564 12.387H65.6538C66.0783 10.2851 67.3481 9.10229 69.1716 9.10229ZM77.2157 14.2274C77.2157 8.80733 74.1545 5.48926 69.2688 5.48926C64.2859 5.48926 60.8662 8.9063 60.8662 13.8991C60.8662 19.1907 64.4812 22.6048 70.148 22.6048C72.3003 22.6455 74.4207 22.0765 76.2684 20.9625C76.3886 20.8838 76.4774 20.7649 76.5192 20.6267C76.561 20.4885 76.553 20.3398 76.4968 20.2069L75.5554 17.809C75.5263 17.7076 75.4736 17.6147 75.4018 17.5379C75.3301 17.4611 75.2412 17.4026 75.1426 17.3672C75.0439 17.3319 74.9384 17.3208 74.8347 17.3347C74.7309 17.3487 74.632 17.3873 74.546 17.4474C73.2687 18.1184 71.8494 18.4678 70.4093 18.4656C67.7386 18.4656 65.9151 17.2505 65.5887 15.4101H76.5667C76.7393 15.4094 76.9045 15.3398 77.0265 15.2166C77.1484 15.0935 77.2171 14.9267 77.2176 14.7526L77.2157 14.2274ZM50.0533 18.4323C47.7412 18.4323 46.178 16.6253 46.178 13.9971C46.178 11.3032 47.7412 9.46388 50.0533 9.46388C52.3335 9.46388 53.8966 11.3032 53.8966 13.9971C53.8976 16.6253 52.3335 18.4323 50.0533 18.4323ZM51.5193 5.48926C50.5155 5.47008 49.5202 5.6786 48.607 6.0994C47.6938 6.52021 46.8859 7.14255 46.2431 7.92048V2.56612C46.2426 2.39206 46.1739 2.22525 46.0519 2.10208C45.93 1.97891 45.7647 1.90935 45.5922 1.90858H42.1394C41.9667 1.9091 41.8012 1.97854 41.6791 2.10174C41.5569 2.22494 41.4881 2.39189 41.4876 2.56612V21.5867C41.4881 21.7608 41.5569 21.9277 41.6791 22.0507C41.8013 22.1738 41.9668 22.243 42.1394 22.2432H45.5922C45.7647 22.2427 45.9299 22.1734 46.0519 22.0504C46.1738 21.9274 46.2426 21.7606 46.2431 21.5867V20.0756C46.8747 20.8814 47.6826 21.5289 48.6034 21.9677C49.5243 22.4064 50.5332 22.6245 51.5514 22.6048C55.8503 22.6048 58.9115 19.0898 58.9115 13.998C58.9125 8.93765 55.8513 5.48926 51.5193 5.48926ZM33.6436 21.7503C32.0805 25.725 29.54 27.8602 26.2835 27.8602C25.7369 27.8559 25.1918 27.8008 24.6552 27.6956C24.5189 27.6617 24.3987 27.5807 24.3154 27.4667C24.2322 27.3526 24.1912 27.2127 24.1996 27.0714V24.2766C24.1979 24.1709 24.2202 24.0662 24.2648 23.9705C24.3094 23.8748 24.375 23.7907 24.4568 23.7245C24.5385 23.6583 24.6342 23.6119 24.7364 23.5887C24.8387 23.5655 24.9448 23.5661 25.0468 23.5906C25.2844 23.6181 25.5236 23.6292 25.7628 23.624C27.391 23.624 28.4014 22.9008 28.6938 21.522L23.3505 6.90331C23.2978 6.7914 23.275 6.66758 23.2841 6.54403C23.2933 6.42049 23.3342 6.30148 23.4029 6.19873C23.4715 6.09599 23.5655 6.01304 23.6755 5.95805C23.7856 5.90307 23.908 5.87795 24.0306 5.88516H27.8466C27.9767 5.88252 28.1041 5.92285 28.2093 5.99998C28.3145 6.07711 28.3919 6.18683 28.4296 6.31242L31.2625 16.102L34.4218 6.31242C34.4595 6.18683 34.5368 6.07711 34.6421 5.99998C34.7473 5.92285 34.8746 5.88252 35.0047 5.88516H38.7499C38.8739 5.88393 38.9962 5.91424 39.1056 5.97328C39.2149 6.03231 39.3077 6.11818 39.3755 6.22295C39.4433 6.32773 39.4838 6.44804 39.4933 6.57277C39.5028 6.6975 39.481 6.82263 39.4299 6.93663L33.6436 21.7503ZM16.8055 8.34675C17.224 7.59018 17.8327 6.95811 18.5703 6.51413C19.3079 6.07014 20.1484 5.82989 21.0072 5.81754C21.3327 5.81754 21.493 6.04783 21.493 6.4741V10.3174C21.4922 10.4913 21.4234 10.6579 21.3015 10.7808C21.1796 10.9038 21.0145 10.9732 20.8421 10.974H19.2459C18.9057 10.9415 18.5626 10.9874 18.2426 11.1083C17.9226 11.2293 17.6341 11.422 17.3988 11.672C17.1635 11.9219 16.9876 12.2226 16.8845 12.5512C16.7814 12.8799 16.7537 13.2278 16.8035 13.5688V21.5847C16.803 21.7589 16.7341 21.9257 16.612 22.0488C16.4898 22.1718 16.3243 22.241 16.1517 22.2413H12.732C12.5593 22.241 12.3938 22.1718 12.2716 22.0488C12.1495 21.9257 12.0806 21.7589 12.0801 21.5847V6.50644C12.0808 6.33238 12.1498 6.16567 12.2719 6.04269C12.394 5.9197 12.5594 5.8504 12.732 5.84989H16.1517C16.3242 5.8504 16.4896 5.9197 16.6117 6.04269C16.7338 6.16567 16.8028 6.33238 16.8035 6.50644L16.8055 8.34675ZM5.63317 2.56514V5.8538H9.47644C9.649 5.85432 9.81437 5.92363 9.93649 6.04662C10.0586 6.16961 10.1276 6.3363 10.1283 6.51036V9.23753C10.1276 9.41159 10.0586 9.57828 9.93649 9.70127C9.81437 9.82426 9.649 9.89357 9.47644 9.89408H5.63317V15.906C5.63317 17.2857 6.44728 18.008 8.04346 18.008C8.44861 18.0096 8.85268 17.9655 9.24813 17.8766C9.35496 17.8491 9.46669 17.8472 9.57437 17.8711C9.68205 17.895 9.78267 17.944 9.86816 18.0143C9.95366 18.0845 10.0216 18.174 10.0667 18.2755C10.1117 18.377 10.1325 18.4878 10.1273 18.5989V21.2927C10.128 21.4421 10.076 21.5869 9.98065 21.7013C9.88526 21.8156 9.75271 21.8921 9.60662 21.9169C8.60805 22.1134 7.59463 22.2232 6.57747 22.2452C3.09268 22.2452 0.87764 20.3069 0.87764 17.3171V2.56514C0.878152 2.3909 0.946996 2.22395 1.06914 2.10075C1.19128 1.97755 1.35678 1.90811 1.52951 1.90759H4.98128C5.15368 1.90863 5.31869 1.97829 5.44041 2.10144C5.56213 2.22458 5.6307 2.39124 5.63121 2.56514H5.63317Z" fill="white"/>
<path d="M95.8026 12.0273H84.7964C84.587 12.0271 84.3836 11.9572 84.2176 11.8286C84.0515 11.6999 83.9322 11.5196 83.878 11.3157C83.8238 11.1117 83.8377 10.8953 83.9177 10.7002C83.9977 10.505 84.1392 10.3419 84.3203 10.236L100.836 0.61991C101.017 0.514727 101.228 0.472771 101.436 0.500528C101.643 0.528284 101.836 0.624202 101.984 0.773459C102.132 0.922716 102.227 1.11699 102.254 1.32624C102.282 1.53549 102.24 1.74805 102.136 1.93106L96.6313 11.5472C96.5473 11.6938 96.4265 11.8154 96.281 11.8997C96.1355 11.9841 95.9704 12.0281 95.8026 12.0273Z" fill="white"/>
<path d="M107.123 4.28081V23.515C107.123 23.7262 107.053 23.9314 106.926 24.0989C106.798 24.2663 106.62 24.3867 106.417 24.4414C106.215 24.4961 106.001 24.482 105.807 24.4013C105.614 24.3207 105.452 24.1779 105.347 23.9952L99.8425 14.3781C99.7588 14.2321 99.7148 14.0665 99.7148 13.8979C99.7148 13.7293 99.7588 13.5637 99.8425 13.4177L105.347 3.80063C105.452 3.6179 105.614 3.47514 105.807 3.39448C106.001 3.31381 106.215 3.29972 106.417 3.3544C106.62 3.40908 106.798 3.52948 106.926 3.69695C107.053 3.86442 107.123 4.06963 107.123 4.28081Z" fill="white"/>
<path d="M96.6279 16.2457L102.132 25.8618C102.237 26.0448 102.278 26.2574 102.251 26.4666C102.223 26.6759 102.128 26.8701 101.98 27.0194C101.832 27.1687 101.64 27.2646 101.432 27.2923C101.225 27.3201 101.014 27.2781 100.833 27.173L84.317 17.5568C84.1358 17.451 83.9943 17.2878 83.9143 17.0927C83.8343 16.8975 83.8204 16.6812 83.8746 16.4772C83.9288 16.2732 84.0481 16.093 84.2142 15.9643C84.3802 15.8357 84.5836 15.7658 84.793 15.7655H95.8021C95.9694 15.7653 96.1339 15.8096 96.2789 15.8939C96.4239 15.9782 96.5442 16.0995 96.6279 16.2457Z" fill="white"/>
</svg>
