<svg width="54" height="31" viewBox="0 0 54 31" fill="none" xmlns="http://www.w3.org/2000/svg">
<path d="M10.0675 3.77552C11.7435 2.01682 13.9667 0.989502 16.5785 0.989502C21.6665 0.989502 25.04 4.70006 25.6854 10.2587C25.8947 12.0639 25.8927 14.6089 25.8906 17.5567C25.8903 17.859 25.8902 18.1655 25.8902 18.476V29.5189H18.8931V21.3512C18.8931 21.3512 18.8789 14.3608 18.8361 13.0544C18.6483 7.36433 15.2758 3.78899 10.0668 3.78515C8.49526 5.44359 7.65318 7.47133 7.529 10.5718C7.51193 11.0042 7.51622 12.537 7.52188 14.5572C7.52481 15.6039 7.52811 16.7815 7.529 18.0046C7.53418 23.3284 7.529 29.52 7.529 29.52H0.531924V16.9501C0.531924 16.5194 0.52406 16.085 0.516176 15.6489C0.500306 14.7717 0.484312 13.8878 0.531924 13.0125C0.610979 11.5533 0.863696 10.1189 1.54538 8.78636C3.10575 5.7336 6.30296 3.76803 9.71143 3.76803C9.8305 3.76803 9.94965 3.77077 10.0675 3.77534V3.77552Z" fill="white"/>
<path d="M53.4682 18.1733C53.5158 17.2981 53.4998 16.414 53.484 15.5369C53.476 15.1008 53.4682 14.6664 53.4682 14.2357V1.66574H46.4712C46.4712 1.66574 46.466 7.85739 46.4712 13.1811C46.472 14.4042 46.4753 15.5817 46.4782 16.6284C46.4839 18.6487 46.4882 20.1815 46.4712 20.6139C46.347 23.7145 45.5049 25.7422 43.9333 27.4007C38.7245 27.397 35.352 23.8214 35.1641 18.1315C35.1214 16.825 35.1033 13.583 35.1033 9.82807V1.6604L28.1114 1.66678V12.7097C28.1114 13.0201 28.1111 13.3266 28.111 13.629C28.1088 16.5768 28.107 19.1217 28.3162 20.9269C28.9603 26.4856 32.3337 30.1962 37.4218 30.1962C40.0337 30.1962 42.2568 29.1688 43.9328 27.4101C44.0506 27.4147 44.1697 27.4174 44.2887 27.4174C47.6972 27.4174 50.8944 25.4519 52.4548 22.3991C53.1365 21.0665 53.3892 19.6322 53.4682 18.173L53.4682 18.1733Z" fill="white"/>
</svg>
