<svg width="154" height="30" viewBox="0 0 154 30" fill="none" xmlns="http://www.w3.org/2000/svg">
<g clip-path="url(#clip0_1_386)">
<path fill-rule="evenodd" clip-rule="evenodd" d="M70.5947 7.64283C70.5933 7.23101 70.2641 6.87937 69.844 6.89898C67.8476 7.04458 66.2609 7.75029 65.0867 9.01772C63.7599 10.4498 63.0964 12.4396 63.0964 14.9879V22.1987C63.0964 22.6107 63.4312 22.9449 63.8441 22.9449H64.4297C64.8429 22.9449 65.1779 22.6107 65.1779 22.1987L65.1757 14.9879C65.1757 13.0325 65.6409 11.5364 66.5722 10.4992C67.3579 9.62349 68.4513 9.1222 69.844 8.986C70.2641 8.94948 70.5947 8.68003 70.5947 8.22657V7.64283Z" fill="white"/>
<path fill-rule="evenodd" clip-rule="evenodd" d="M73.0934 13.9188C73.2513 12.3069 73.8395 11.0161 74.8585 10.1713C75.8769 9.32639 77.2861 8.9041 79.0857 8.9041C80.8855 8.9041 82.295 9.32639 83.3135 10.1713C84.3321 11.0161 84.9128 12.3069 85.0905 13.9188H73.0934ZM78.9686 21.1088C76.9925 21.1088 75.491 20.5936 74.4639 19.5628C73.631 18.7276 73.1418 17.5743 72.9839 16.1143H85.9508C86.3534 16.1143 86.5731 16.0313 86.7855 15.8385C87.1072 15.5467 87.0898 14.9973 87.0898 14.9973C87.0898 12.441 86.3777 10.4907 84.9553 9.054C83.5326 7.61707 81.5371 6.89819 78.9686 6.89819C76.3666 6.89819 74.4429 7.61303 72.982 9.054C70.6498 11.3541 70.8481 15.0803 70.8481 15.0836C70.844 17.6657 71.5594 19.6116 72.9783 21.0539C75.2873 23.4013 78.9509 23.1907 78.9552 23.1907C81.5232 23.1907 83.5394 22.4762 84.9621 21.0491C85.7338 20.2747 86.1365 19.7541 86.4896 18.6411C86.7387 17.8527 85.9712 17.906 85.9712 17.906L85.0075 17.9064C84.5718 17.9026 84.4134 18.1989 84.1899 18.6331C83.0804 20.581 80.9446 21.1088 78.9686 21.1088Z" fill="white"/>
<path fill-rule="evenodd" clip-rule="evenodd" d="M101.307 19.3863C100.288 20.4217 98.7981 20.939 96.8379 20.939C94.8969 20.939 93.4122 20.4217 92.3829 19.3863C91.3537 18.3507 90.8391 16.8259 90.8391 14.8735C90.8391 12.9011 91.3537 11.4675 92.3829 10.4421C93.4122 9.41668 94.8969 8.90412 96.8379 8.90412C98.7981 8.90412 100.288 9.41668 101.307 10.4421C102.327 11.4675 102.836 12.9011 102.836 14.8735C102.836 16.8259 102.327 18.3507 101.307 19.3863ZM104.338 0.630127H103.753C103.34 0.630127 103.005 0.963236 103.005 1.37398C103.005 1.37962 103.007 9.40674 103.007 9.40674C102.342 8.53529 101.377 7.78204 100.357 7.39789C99.3371 7.01374 98.2546 6.82192 96.9478 6.82192C94.3937 6.82192 92.4039 7.53086 90.9782 8.94872C89.5524 10.366 88.8397 12.2903 88.8397 14.8504C88.8397 17.3903 89.5524 19.4005 90.9782 20.8184C92.4039 22.236 94.3937 22.9449 96.9478 22.9449C99.522 22.9449 101.522 22.236 102.947 20.8184C104.373 19.4005 105.086 17.3903 105.086 14.9148V1.43845C105.086 0.963236 104.751 0.630127 104.338 0.630127Z" fill="white"/>
<path fill-rule="evenodd" clip-rule="evenodd" d="M47.8495 15.047C47.8495 17.6025 48.5557 19.598 49.9687 21.0346C51.3817 22.4708 53.3636 23.1955 55.9145 23.1955C58.259 23.1955 59.7916 22.5337 60.5627 22.0152C61.1591 21.6496 61.0941 21.2243 61.0941 20.7488V20.3703C61.0941 19.3982 60.3054 19.7989 59.8719 20.0388C58.9222 20.5476 57.9687 21.109 55.9145 21.109C53.9521 21.109 52.4604 20.5887 51.4405 19.5491C50.4199 18.5089 49.9098 17.0083 49.9098 15.047C49.9098 13.0855 50.4199 11.5848 51.4405 10.5449C52.4604 9.50504 53.9521 8.98496 55.9145 8.98496C57.2764 8.98496 58.3637 9.23559 59.3132 9.74466C59.7373 9.95097 60.5356 10.355 60.5356 9.44702V9.00753C60.5356 8.53204 60.6028 8.15809 60.0007 7.8121C58.7416 7.17623 57.6737 6.89819 55.9145 6.89819C53.3636 6.89819 51.3817 7.62297 49.9687 9.0591C48.5557 10.4958 47.8495 12.4915 47.8495 15.047Z" fill="white"/>
<path fill-rule="evenodd" clip-rule="evenodd" d="M122.332 21.8621C122.332 21.4071 121.999 21.1365 121.578 21.0999C120.182 20.9632 119.087 20.46 118.299 19.5808C117.366 18.5401 116.9 17.0379 116.9 15.075L116.901 9.17142H120.336C120.75 9.17142 121.085 8.83617 121.085 8.42274V7.83631C121.085 7.42287 120.75 7.08762 120.336 7.08762H116.902V2.131C116.902 1.71758 116.566 1.38232 116.152 1.38232H115.567C115.153 1.38232 114.816 1.71758 114.816 2.131V7.08762H113.334C112.92 7.08762 112.584 7.42287 112.584 7.83631V8.42274C112.584 8.83617 112.92 9.17142 113.334 9.17142H114.816V15.075C114.816 17.6329 115.481 19.6302 116.811 21.068C117.987 22.3405 119.577 23.0486 121.578 23.1947C121.999 23.2146 122.331 22.8617 122.332 22.4483V21.8621Z" fill="white"/>
<path fill-rule="evenodd" clip-rule="evenodd" d="M109.366 0.630127H108.804C108.407 0.630127 108.085 0.975325 108.085 1.40111V3.36914C108.085 3.7952 108.407 4.14039 108.804 4.14039H109.366C109.763 4.14039 110.085 3.7952 110.085 3.36914V1.40111C110.085 0.975325 109.763 0.630127 109.366 0.630127Z" fill="white"/>
<path fill-rule="evenodd" clip-rule="evenodd" d="M109.366 6.89819H108.804C108.407 6.89819 108.085 7.23104 108.085 7.64124V21.9512C108.085 22.3614 108.407 22.6941 108.804 22.6941H109.366C109.763 22.6941 110.085 22.3614 110.085 21.9512V7.64124C110.085 7.23104 109.763 6.89819 109.366 6.89819Z" fill="white"/>
<path fill-rule="evenodd" clip-rule="evenodd" d="M135.078 17.522C135.078 20.077 133.488 20.9391 129.557 20.9391C126.741 20.9391 125.081 20.0006 125.081 17.987C125.081 15.7817 126.799 14.9216 130.633 14.9216H135.078V17.522ZM135.024 11.4779V13.1531H130.55C125.385 13.1531 123.082 14.6478 123.082 18.0001C123.082 21.0964 125.502 22.9449 129.557 22.9449C134.841 22.9449 137.079 21.3592 137.079 17.6434V11.4779C137.079 9.1859 135.524 8.16051 135.524 8.16051C134.747 7.55769 133.757 7.18107 132.551 7.03009C131.809 6.93365 131.189 6.89819 130.426 6.89819C129.701 6.89819 129.081 6.92747 128.382 7.01182C127.102 7.14588 126.05 7.52654 125.232 8.16051C124.203 8.95998 123.687 10.0791 123.68 11.4779C123.68 11.4779 123.704 12.1229 124.407 12.1229H124.977C125.379 12.1229 125.705 11.8615 125.705 11.4577C125.705 9.96817 126.949 9.48542 126.949 9.48542C127.312 9.30894 128.666 8.89685 130.416 8.89685C132.237 8.89685 133.446 9.30866 133.808 9.48516C133.808 9.48516 135.024 9.94883 135.024 11.4779Z" fill="white"/>
<path fill-rule="evenodd" clip-rule="evenodd" d="M145.861 15.7009C149.657 15.7009 151.024 15.9327 151.024 18.1248C151.024 20.1258 149.088 20.9681 146.3 20.9681C144.065 20.9681 142.594 20.6854 141.746 19.9639C141.057 19.3369 141.104 18.3995 141.104 18.3995C141.104 17.9956 140.778 17.7339 140.376 17.7339H139.805C139.102 17.7339 139.078 18.3791 139.078 18.3791C139.078 20.7074 140.62 21.7334 140.62 21.7334C141.843 22.5627 143.704 22.9449 146.3 22.9449C150.358 22.9449 153.075 21.1848 153.075 18.0847C153.075 14.7284 151.042 13.6995 145.871 13.6995C143.661 13.6995 142.599 13.1333 142.599 13.1333C141.309 12.5624 141.382 11.3562 141.382 11.3562C141.382 9.94641 142.599 9.42767 142.599 9.42767C142.962 9.25064 144.048 8.8998 145.871 8.8998C147.622 8.8998 148.855 9.27535 149.217 9.45212C149.217 9.45212 150.357 9.95071 150.441 11.0664C150.47 11.4494 150.767 11.6872 151.17 11.6872H151.74C152.459 11.6872 152.445 11.0414 152.445 11.0414C152.445 10.1178 151.966 8.96239 150.937 8.16213C150.118 7.52734 149.085 7.16603 147.908 7.01209C147.208 6.92049 146.586 6.89819 145.861 6.89819C145.096 6.89819 144.6 6.93365 143.857 7.03009C142.651 7.18133 141.605 7.61277 140.881 8.16213C140.881 8.16213 139.325 9.18348 139.325 11.3562C139.325 11.3562 139.218 13.2457 140.881 14.4823C140.881 14.4823 142.21 15.7009 145.861 15.7009Z" fill="white"/>
<path fill-rule="evenodd" clip-rule="evenodd" d="M40.66 19.4309C40.66 19.8365 40.5313 20.1449 40.5313 20.1449C38.4219 25.9878 32.9014 29.9115 26.7848 29.9115C24.714 29.9115 22.7431 29.4686 20.9556 28.6754C20.9556 28.6754 18.4297 29.9108 15.1391 29.9108C7.05401 29.9108 0.499878 23.236 0.499878 15.0021C0.499878 6.76812 7.05401 0.0933107 15.1391 0.0933107C18.5025 0.0933107 20.9556 1.32877 20.9556 1.32877C22.7431 0.535486 24.714 0.0927734 26.7848 0.0927734C32.9014 0.0927734 38.4219 4.01647 40.5313 9.85932C40.5313 9.85932 40.66 10.1674 40.66 10.5733C40.66 10.8557 40.5977 11.1853 40.3862 11.4913C40.0306 12.0054 39.4099 12.3224 38.7035 12.3267H29.15C27.5612 12.3267 26.9055 10.4568 26.9055 10.4568C25.7919 7.47087 23.6376 5.08081 20.9589 3.65409C16.9484 5.7978 14.2045 10.0785 14.2038 15.0021C14.2045 19.9256 16.9484 24.2064 20.9589 26.3501C23.6376 24.9233 25.7919 22.5333 26.9055 19.5474C26.9055 19.5474 27.5612 17.6775 29.15 17.6775H38.7035C39.4099 17.6818 40.0306 17.9988 40.3862 18.5129C40.5977 18.8188 40.66 19.1485 40.66 19.4309ZM28.7836 9.2256C27.6599 6.49223 25.7796 4.21284 23.4485 2.60372C24.546 2.28727 25.7026 2.11426 26.8983 2.11426C32.0683 2.11426 36.7456 5.34784 38.6643 10.2007H29.8463C29.1548 10.2007 28.7836 9.2256 28.7836 9.2256ZM2.49541 14.8756C2.49688 7.8389 8.12896 2.11426 15.0516 2.11426C16.2221 2.11426 17.367 2.2827 18.4597 2.59807C14.6001 5.27342 12.0602 9.77953 12.0583 14.8756C12.0602 19.9716 14.6001 24.478 18.4597 27.1533C17.367 27.4686 16.2221 27.6371 15.0516 27.6371C8.12896 27.6371 2.49688 21.9125 2.49541 14.8756ZM23.4485 27.4004C25.7796 25.7911 27.6599 23.5119 28.7836 20.7783C28.7836 20.7783 29.1548 19.8034 29.8463 19.8034H38.6643C36.7456 24.6563 32.0683 27.8899 26.8983 27.8899C25.7026 27.8899 24.546 27.7167 23.4485 27.4004Z" fill="white"/>
<path fill-rule="evenodd" clip-rule="evenodd" d="M40.66 19.4309C40.66 19.8365 40.5313 20.1449 40.5313 20.1449C38.4219 25.9878 32.9014 29.9115 26.7848 29.9115C24.714 29.9115 22.7431 29.4686 20.9556 28.6754C20.9556 28.6754 18.4297 29.9108 15.1391 29.9108C7.05401 29.9108 0.499878 23.236 0.499878 15.0021C0.499878 6.76812 7.05401 0.0933107 15.1391 0.0933107C18.5025 0.0933107 20.9556 1.32877 20.9556 1.32877C22.7431 0.535486 24.714 0.0927734 26.7848 0.0927734C32.9014 0.0927734 38.4219 4.01647 40.5313 9.85932C40.5313 9.85932 40.66 10.1674 40.66 10.5733C40.66 10.8557 40.5977 11.1853 40.3862 11.4913C40.0306 12.0054 39.4099 12.3224 38.7035 12.3267H29.15C27.5612 12.3267 26.9055 10.4568 26.9055 10.4568C25.7919 7.47087 23.6376 5.08081 20.9589 3.65409C16.9484 5.7978 14.2045 10.0785 14.2038 15.0021C14.2045 19.9256 16.9484 24.2064 20.9589 26.3501C23.6376 24.9233 25.7919 22.5333 26.9055 19.5474C26.9055 19.5474 27.5612 17.6775 29.15 17.6775H38.7035C39.4099 17.6818 40.0306 17.9988 40.3862 18.5129C40.5977 18.8188 40.66 19.1485 40.66 19.4309ZM28.7836 9.2256C27.6599 6.49223 25.7796 4.21284 23.4485 2.60372C24.546 2.28727 25.7026 2.11426 26.8983 2.11426C32.0683 2.11426 36.7456 5.34784 38.6643 10.2007H29.8463C29.1548 10.2007 28.7836 9.2256 28.7836 9.2256ZM2.49541 14.8756C2.49688 7.8389 8.12896 2.11426 15.0516 2.11426C16.2221 2.11426 17.367 2.2827 18.4597 2.59807C14.6001 5.27342 12.0602 9.77953 12.0583 14.8756C12.0602 19.9716 14.6001 24.478 18.4597 27.1533C17.367 27.4686 16.2221 27.6371 15.0516 27.6371C8.12896 27.6371 2.49688 21.9125 2.49541 14.8756ZM23.4485 27.4004C25.7796 25.7911 27.6599 23.5119 28.7836 20.7783C28.7836 20.7783 29.1548 19.8034 29.8463 19.8034H38.6643C36.7456 24.6563 32.0683 27.8899 26.8983 27.8899C25.7026 27.8899 24.546 27.7167 23.4485 27.4004Z" fill="white"/>
</g>
<defs>
<clipPath id="clip0_1_386">
<rect width="153" height="29" fill="white" transform="translate(0.499878 0.0927734)"/>
</clipPath>
</defs>
</svg>
