<svg width="104" height="30" viewBox="0 0 104 30" fill="none" xmlns="http://www.w3.org/2000/svg">
<path d="M51.7664 0.939087V2.58748H48.0476V12.5295H46.1214V2.58748H42.4207V0.939087H51.7664Z" fill="white"/>
<path d="M57.2381 4.07344C58.1735 4.07344 58.8973 4.33795 59.4095 4.86457C59.9205 5.39239 60.1766 6.07532 60.1766 6.91334V12.5294H58.3815V7.46882C58.3815 6.87006 58.2348 6.41077 57.9403 6.08974C57.6469 5.76872 57.2273 5.60761 56.6838 5.60761C56.15 5.60761 55.7099 5.78676 55.3613 6.14625C55.0126 6.50575 54.8395 6.96264 54.8395 7.51811V12.5294H53.0444V0.938965H54.8395V5.15073C55.3829 4.43173 56.1825 4.07344 57.2381 4.07344Z" fill="white"/>
<path d="M65.7383 4.07336C66.9683 4.07336 67.9686 4.47614 68.7417 5.28171C69.5148 6.08727 69.9008 7.1369 69.9008 8.43181C69.9008 9.7159 69.5148 10.7607 68.7417 11.5663C67.9686 12.3718 66.9683 12.7746 65.7383 12.7746C64.5083 12.7746 63.5044 12.3718 62.7265 11.5663C61.9486 10.7607 61.559 9.7159 61.559 8.43181C61.559 7.1369 61.945 6.08727 62.7181 5.28171C63.49 4.47614 64.4975 4.07336 65.7383 4.07336ZM65.7383 5.5907C65.0205 5.5907 64.4482 5.8492 64.0238 6.36621C63.5994 6.88321 63.3878 7.57214 63.3878 8.43181C63.3878 9.28065 63.5994 9.96358 64.0238 10.4806C64.4482 10.9976 65.0193 11.2561 65.7383 11.2561C66.4453 11.2561 67.0116 10.9976 67.436 10.4806C67.8604 9.96358 68.0732 9.28065 68.0732 8.43181C68.0732 7.57214 67.8604 6.88441 67.436 6.36621C67.0116 5.8492 66.4453 5.5907 65.7383 5.5907Z" fill="white"/>
<path d="M76.4896 4.33423H78.2859V12.5293H76.6375V11.5987C76.159 12.3826 75.3474 12.7746 74.2052 12.7746C73.2144 12.7746 72.4798 12.5353 72.0013 12.0568C71.5228 11.5783 71.2835 10.941 71.2835 10.1475V4.33423H73.0798V9.65574C73.0798 10.1559 73.2072 10.5431 73.4633 10.8148C73.7194 11.0865 74.097 11.2224 74.5983 11.2224C75.1646 11.2224 75.6215 11.0565 75.969 10.7246C76.3177 10.3928 76.4908 9.91664 76.4908 9.29624V4.33423H76.4896Z" fill="white"/>
<path d="M85.9416 4.33441H87.6068V12.2193C87.6068 13.3182 87.2497 14.1731 86.538 14.7827C85.825 15.3922 84.886 15.6964 83.7221 15.6964C82.3731 15.6964 81.0998 15.2985 79.9023 14.5049L80.7836 13.1992C81.3824 13.5587 81.8958 13.8172 82.3262 13.9747C82.7554 14.1322 83.2159 14.2115 83.7053 14.2115C84.3473 14.2115 84.8643 14.0372 85.2563 13.6897C85.6482 13.3411 85.8442 12.8024 85.8442 12.0738V11.2081C85.2887 11.992 84.4567 12.384 83.347 12.384C82.3021 12.384 81.4425 11.9981 80.768 11.225C80.0935 10.4519 79.7556 9.45152 79.7556 8.22154C79.7556 7.00238 80.0923 6.00685 80.768 5.23375C81.4425 4.46065 82.3021 4.07471 83.347 4.07471C84.5229 4.07471 85.3873 4.50995 85.9428 5.38044V4.33441H85.9416ZM83.7209 10.8643C84.3629 10.8643 84.8848 10.619 85.2875 10.1296C85.6903 9.64029 85.8911 9.00306 85.8911 8.21914C85.8911 7.44604 85.6891 6.81842 85.2875 6.33388C84.8848 5.84935 84.3629 5.60768 83.7209 5.60768C83.0572 5.60768 82.5318 5.84694 82.1458 6.32547C81.7599 6.80399 81.5663 7.43522 81.5663 8.21914C81.5663 9.01388 81.7599 9.65352 82.1458 10.1369C82.5318 10.6214 83.0572 10.8643 83.7209 10.8643Z" fill="white"/>
<path d="M93.6637 4.07344C94.5991 4.07344 95.3229 4.33795 95.8351 4.86457C96.3461 5.39239 96.6022 6.07532 96.6022 6.91334V12.5294H94.8059V7.46882C94.8059 6.87006 94.6593 6.41077 94.3647 6.08974C94.0713 5.76872 93.6517 5.60761 93.1082 5.60761C92.5744 5.60761 92.1344 5.78676 91.7857 6.14625C91.437 6.50575 91.2639 6.96264 91.2639 7.51811V12.5294H89.4676V0.938965H91.2627V5.15073C91.8073 4.43173 92.6081 4.07344 93.6637 4.07344Z" fill="white"/>
<path d="M102.894 10.9783L103.123 12.3982C102.513 12.605 101.925 12.7084 101.36 12.7084C100.565 12.7084 99.9941 12.5269 99.6454 12.1614C99.2967 11.7971 99.1236 11.2452 99.1236 10.5046V5.68924H97.6375V4.33421H99.1236V1.68909H100.919V4.33421H102.991V5.68924H100.919V10.293C100.919 10.6092 100.99 10.8316 101.131 10.9627C101.273 11.0937 101.496 11.1586 101.801 11.1586C102.095 11.1574 102.459 11.0985 102.894 10.9783Z" fill="white"/>
<path d="M48.8786 26.5079L51.5237 17.5625H54.7231V29.153H52.8295V23.3085C52.8295 23.2868 52.8463 21.8561 52.8787 19.015L49.7118 29.1518H48.031L44.7991 19.0474C44.8207 19.984 44.8316 21.4088 44.8316 23.3241V29.1518H42.9872V17.5613L46.0964 17.5577L48.8786 26.5079Z" fill="white"/>
<path d="M60.0671 20.6969C61.1768 20.6969 62.0317 20.9554 62.6305 21.4724C63.2292 21.9894 63.5286 22.6831 63.5286 23.5536V29.1529H61.9127V28.2223C61.3572 29.017 60.4542 29.4138 59.2026 29.4138C58.3538 29.4138 57.6516 29.2238 57.0973 28.8427C56.5419 28.4615 56.2653 27.8796 56.2653 27.0957C56.2653 26.236 56.5887 25.5964 57.2368 25.178C57.8837 24.7596 58.7842 24.441 59.9384 24.2233L61.8153 23.8807V23.5873C61.8153 23.1412 61.6626 22.795 61.3584 22.5509C61.053 22.3056 60.6406 22.1842 60.1176 22.1842C59.6054 22.1842 59.1629 22.2876 58.7866 22.4944C58.4115 22.7012 57.9786 23.0499 57.4893 23.5392L56.3627 22.4944C57.363 21.2957 58.5978 20.6969 60.0671 20.6969ZM59.4635 27.977C60.1272 27.977 60.6851 27.8003 61.1372 27.4468C61.588 27.0933 61.8141 26.5895 61.8141 25.9367V25.1852L60.3941 25.4786C59.5777 25.6529 58.979 25.8429 58.599 26.0497C58.2179 26.2565 58.0279 26.5715 58.0279 26.9959C58.0279 27.3001 58.1554 27.5406 58.4115 27.7137C58.6664 27.8904 59.0175 27.977 59.4635 27.977Z" fill="white"/>
<path d="M71.2994 23.3575C70.8642 22.9114 70.477 22.6096 70.1404 22.4509C69.8025 22.2934 69.4442 22.2141 69.0631 22.2141C68.3333 22.2141 67.7706 22.4894 67.3738 23.0389C66.9759 23.5883 66.7775 24.2604 66.7775 25.0552C66.7775 25.8499 66.9759 26.516 67.3738 27.0547C67.7706 27.5933 68.3345 27.8626 69.0631 27.8626C69.4875 27.8626 69.8711 27.7676 70.2137 27.5765C70.5564 27.3865 70.9508 27.0462 71.3968 26.5557L72.5727 27.5512C72.028 28.2365 71.4846 28.7163 70.9399 28.988C70.3953 29.2597 69.7641 29.3956 69.0463 29.3956C67.8163 29.3956 66.8268 29.0036 66.0753 28.2197C65.3239 27.4358 64.9487 26.3802 64.9487 25.0528C64.9487 23.7254 65.3299 22.6674 66.0909 21.8774C66.852 21.0887 67.8487 20.6943 69.0787 20.6943C69.7641 20.6943 70.3688 20.811 70.8906 21.0454C71.4137 21.2799 71.9295 21.6851 72.4416 22.261L71.2994 23.3575Z" fill="white"/>
<path d="M77.8521 20.6969C78.7875 20.6969 79.5113 20.9614 80.0235 21.488C80.5345 22.0158 80.7906 22.6987 80.7906 23.5368V29.1528H78.9955V24.0922C78.9955 23.4935 78.8488 23.0342 78.5543 22.7132C78.2609 22.3921 77.8413 22.231 77.2978 22.231C76.764 22.231 76.324 22.4102 75.9753 22.7697C75.6266 23.1292 75.4535 23.586 75.4535 24.1415V29.1528H73.6584V17.5624H75.4535V21.7741C75.9957 21.0563 76.7965 20.6969 77.8521 20.6969Z" fill="white"/>
<path d="M90.4803 20.6969C91.4158 20.6969 92.1396 20.9614 92.6518 21.488C93.1627 22.0159 93.4188 22.6988 93.4188 23.5368V29.1529H91.6238V24.0923C91.6238 23.4935 91.4771 23.0342 91.1825 22.7132C90.8891 22.3922 90.4695 22.2311 89.9261 22.2311C89.3922 22.2311 88.9522 22.4102 88.6035 22.7697C88.2548 23.1292 88.0817 23.5861 88.0817 24.1416V29.1529H86.2866V20.9578H87.9518V21.9377C88.5157 21.1105 89.3598 20.6969 90.4803 20.6969Z" fill="white"/>
<path d="M101.621 26.6556L102.649 27.7498C102.061 28.3485 101.484 28.7729 100.919 29.023C100.352 29.2731 99.7211 29.3982 99.025 29.3982C97.7409 29.3982 96.7201 29.0086 95.9639 28.2307C95.2076 27.4528 94.8289 26.4104 94.8289 25.1046C94.8289 23.7989 95.1932 22.7373 95.923 21.9209C96.6516 21.1045 97.6315 20.6969 98.8615 20.6969C100.07 20.6969 101 21.0564 101.653 21.7742C102.306 22.492 102.633 23.4779 102.633 24.7283C102.633 25 102.622 25.2453 102.601 25.4629H96.5939C96.6588 26.1807 96.8981 26.7639 97.3117 27.2099C97.7253 27.656 98.3072 27.8796 99.0587 27.8796C99.548 27.8796 99.9676 27.793 100.315 27.6187C100.663 27.4444 101.099 27.1234 101.621 26.6556ZM98.8134 22.1169C98.2254 22.1169 97.7469 22.296 97.3766 22.6555C97.0063 23.015 96.7622 23.5152 96.642 24.1572H100.869C100.837 23.526 100.643 23.0282 100.29 22.6639C99.9364 22.2996 99.4446 22.1169 98.8134 22.1169Z" fill="white"/>
<path d="M82.4231 18.6243C82.4231 18.0207 82.9124 17.5302 83.5328 17.5302C84.1532 17.5302 84.6426 18.0195 84.6426 18.6243C84.6426 19.2278 84.1532 19.7184 83.5328 19.7184C82.9124 19.7172 82.4231 19.2278 82.4231 18.6243ZM84.431 29.1531H82.6359V20.958H84.431V29.1531Z" fill="white"/>
<path d="M15.7263 24.6982H20.1821V20.2436H24.6367V15.7877H15.7263V24.6982Z" fill="white"/>
<path d="M29.0909 20.2433H24.6363V24.6979H20.1816V29.1525H29.0909V20.2433Z" fill="white"/>
<path d="M4.2189 22.4728C6.06423 22.4728 7.56017 20.9769 7.56017 19.1316C7.56017 17.2862 6.06423 15.7903 4.2189 15.7903C2.37356 15.7903 0.877625 17.2862 0.877625 19.1316C0.877625 20.9769 2.37356 22.4728 4.2189 22.4728Z" fill="white"/>
<path d="M10.9002 22.4728C12.7456 22.4728 14.2415 20.9769 14.2415 19.1316C14.2415 17.2862 12.7456 15.7903 10.9002 15.7903C9.0549 15.7903 7.55896 17.2862 7.55896 19.1316C7.55896 20.9769 9.0549 22.4728 10.9002 22.4728Z" fill="white"/>
<path d="M10.9002 29.1553C12.7456 29.1553 14.2415 27.6594 14.2415 25.8141C14.2415 23.9687 12.7456 22.4728 10.9002 22.4728C9.0549 22.4728 7.55896 23.9687 7.55896 25.8141C7.55896 27.6594 9.0549 29.1553 10.9002 29.1553Z" fill="white"/>
<path d="M4.21896 29.1553C6.06429 29.1553 7.56023 27.6594 7.56023 25.8141C7.56023 23.9687 6.06429 22.4728 4.21896 22.4728C2.37362 22.4728 0.877686 23.9687 0.877686 25.8141C0.877686 27.6594 2.37362 29.1553 4.21896 29.1553Z" fill="white"/>
<path d="M7.56017 0.939941C3.87022 0.939941 0.877625 3.93134 0.877625 7.62249C0.877625 11.3136 3.86902 14.305 7.56017 14.305C11.2513 14.305 14.2427 11.3136 14.2427 7.62249C14.2427 3.93134 11.2501 0.939941 7.56017 0.939941ZM7.56017 11.3148C5.52102 11.3148 3.86782 9.66164 3.86782 7.62249C3.86782 5.58334 5.52102 3.93013 7.56017 3.93013C9.59932 3.93013 11.2525 5.58334 11.2525 7.62249C11.2525 9.66164 9.59932 11.3148 7.56017 11.3148Z" fill="white"/>
<path d="M20.1828 5.39518V0.940552L15.7282 0.940552V5.39518L20.1828 5.39518Z" fill="white"/>
<path d="M24.6359 9.85087V5.39624L20.1813 5.39624V9.85087H24.6359Z" fill="white"/>
<path d="M29.0921 5.39567V0.94104L24.6375 0.94104V5.39567L29.0921 5.39567Z" fill="white"/>
<path d="M20.1815 14.3045V9.84985H15.7269V14.3045H20.1815Z" fill="white"/>
<path d="M29.0912 14.3058V9.8512H24.6366V14.3058H29.0912Z" fill="white"/>
</svg>
