<svg xmlns="http://www.w3.org/2000/svg" width="50" height="50" viewBox="0 0 50 50" fill="none"><path fill-rule="evenodd" clip-rule="evenodd" d="M29.871 11.4769C29.871 7.0968 29.3376 4.95703 29.3376 4.95703C38.0277 11.3338 42.6726 19.6184 42.6726 28.8551C42.6726 38.092 34.8279 44.8277 25.0043 44.8277C14.3811 44.8277 7.1123 37.86 7.1123 28.8551C7.1123 21.9691 9.29048 16.9082 13.7798 12.0187V13.6483C13.7798 17.845 17.6916 19.0761 22.2921 19.0761C26.8706 19.0761 29.871 15.6739 29.871 11.4769ZM17.0915 32.6445C17.0915 36.1895 20.292 39.0417 24.248 39.0417C30.1378 39.0417 35.0569 35.1173 35.2922 29.4008C35.4205 26.2881 35.0685 23.4257 33.1675 21.2529C30.9006 24.0441 27.2707 25.5547 23.3367 26.2881C19.4251 27.0216 17.0915 29.3441 17.0915 32.6445Z" fill="url(#paint0_linear_531_59)"></path><defs><linearGradient id="paint0_linear_531_59" x1="24.8925" y1="1.69793" x2="24.8925" y2="45.1535" gradientUnits="userSpaceOnUse"><stop stop-color="#FFDD55"></stop><stop offset="1" stop-color="#F2A812"></stop></linearGradient></defs></svg>