<svg width="43" height="56" viewBox="0 0 43 56" fill="none" xmlns="http://www.w3.org/2000/svg">
<path fill-rule="evenodd" clip-rule="evenodd" d="M27.5201 9.15749C27.5201 3.00539 26.8751 0 26.8751 0C37.3833 8.95649 43 20.5924 43 33.5658C43 46.5394 33.514 56 21.6352 56C8.78948 56 0 46.2135 0 33.5658C0 23.8941 2.63388 16.7859 8.06248 9.9184V12.2072C8.06248 18.1017 12.7927 19.8308 18.3556 19.8308C23.892 19.8308 27.5201 15.0522 27.5201 9.15749ZM12.0669 38.8881C12.0669 43.8672 15.937 47.8733 20.7207 47.8733C27.8427 47.8733 33.7909 42.3613 34.0755 34.3323C34.2306 29.9603 33.805 25.94 31.5063 22.8882C28.7651 26.8086 24.3758 28.9303 19.6187 29.9603C14.8888 30.9906 12.0669 34.2526 12.0669 38.8881Z" fill="url(#paint0_linear_1_792)"/>
<defs>
<linearGradient id="paint0_linear_1_792" x1="21.4999" y1="-4.57753" x2="21.4999" y2="56.4576" gradientUnits="userSpaceOnUse">
<stop stop-color="#FFDD55"/>
<stop offset="1" stop-color="#F2A812"/>
</linearGradient>
</defs>
</svg>
