<svg width="81" height="43" viewBox="0 0 81 43" fill="none" xmlns="http://www.w3.org/2000/svg">
<path fill-rule="evenodd" clip-rule="evenodd" d="M3.22983 19.6016V34.2146H7.46048V19.6016H13.4197V15.9374H7.46048V8.25564C7.46048 6.4897 7.76375 5.23895 8.37027 4.50306C8.97678 3.7673 9.84114 3.39937 10.9632 3.39937C11.2968 3.39937 11.6304 3.45827 11.964 3.57597C12.2976 3.66422 12.6009 3.84083 12.8738 4.10578L14.648 1.14778C14.0718 0.735869 13.3894 0.441462 12.6009 0.264858C11.8427 0.0882525 11.1452 0 10.5083 0C8.11241 0 6.29287 0.706419 5.04949 2.11906C3.83635 3.5319 3.22983 5.5626 3.22983 8.21147V15.9374H0V19.6016H3.22983ZM42.3552 20.2067L42.0254 15.9374H38.2498V34.2146H42.4349V25.8707C42.4349 24.6934 42.738 23.5896 43.3447 22.5595C43.9815 21.5294 44.8307 20.7054 45.892 20.0872C46.9838 19.4692 48.2424 19.2043 49.6678 19.2926L49.8951 15.231C49.137 15.231 48.2424 15.4518 47.2113 15.8932C46.2105 16.3052 45.2401 16.9086 44.2999 17.7033C43.4787 18.394 42.8306 19.2284 42.3552 20.2067ZM52.8509 43L50.3491 40.4836C51.1982 39.7772 51.8653 38.8942 52.3506 37.8347C52.8358 36.8046 53.0784 35.5832 53.0784 34.1706V15.9374H57.3545V34.347C57.3545 36.4072 56.9907 38.1438 56.2628 39.5564C55.5653 40.9986 54.428 42.1464 52.8509 43ZM52.7146 9.31518C52.7146 8.66766 52.9725 8.12322 53.4879 7.68176C54.0337 7.2402 54.6252 7.01951 55.262 7.01951C55.8988 7.01951 56.4599 7.2402 56.9452 7.68176C57.4607 8.12322 57.7185 8.66775 57.7185 9.31518C57.7185 9.99215 57.4607 10.5513 56.9452 10.9928C56.4599 11.4049 55.8988 11.6108 55.262 11.6108C54.6252 11.6108 54.0337 11.3901 53.4879 10.9487C52.9725 10.5072 52.7146 9.96269 52.7146 9.31518ZM64.669 33.5524C66.1246 34.2882 67.732 34.6561 69.4909 34.6561C70.5827 34.6561 71.5683 34.5089 72.448 34.2146C73.3272 33.8907 74.1007 33.4936 74.7678 33.0226C75.4655 32.5517 76.0113 32.0955 76.4056 31.654C76.5316 31.515 76.6529 31.3719 76.7694 31.2254V34.2146H81V15.9374H77.0879L76.7813 18.8467C76.1538 17.9011 75.2855 17.0785 74.1765 16.3789C72.9634 15.5842 71.4773 15.1869 69.7184 15.1869C67.9595 15.1869 66.3369 15.5842 64.851 16.3789C63.3953 17.1735 62.2276 18.3213 61.3482 19.8225C60.4687 21.2939 60.0289 23.0452 60.0289 25.0761C60.0289 27.1363 60.4382 28.8874 61.2572 30.3296C62.1063 31.7423 63.2436 32.8166 64.669 33.5524ZM73.4941 30.6827C72.6449 31.0654 71.6897 31.2567 70.6282 31.2567C69.5061 31.2567 68.4598 30.977 67.4894 30.4179C66.5189 29.8587 65.7455 29.0935 65.1693 28.1222C64.593 27.1509 64.305 26.0767 64.305 24.8994C64.305 23.6338 64.578 22.5301 65.1238 21.5882C65.7001 20.6464 66.4583 19.9107 67.3984 19.381C68.3385 18.8512 69.3696 18.5863 70.4917 18.5863C71.5228 18.5863 72.4629 18.7776 73.3121 19.1601C74.1614 19.5134 74.8892 20.0284 75.4958 20.7054C76.1023 21.3528 76.5267 22.118 76.7694 23.001V26.5769C76.5571 27.5482 76.1628 28.3871 75.5866 29.0935C75.0408 29.7705 74.3434 30.3002 73.4941 30.6827ZM27.7959 15.295C27.7959 12.7521 27.4861 11.5099 27.4861 11.5099C32.5361 15.2119 35.2355 20.0213 35.2355 25.3836C35.2355 30.7459 30.6766 34.6561 24.9678 34.6561C18.7941 34.6561 14.5699 30.6112 14.5699 25.3836C14.5699 21.386 15.8358 18.448 18.4447 15.6095V16.5555C18.4447 18.9919 20.7181 19.7066 23.3916 19.7066C26.0524 19.7066 27.7959 17.7315 27.7959 15.295ZM20.3693 27.5833C20.3693 29.6413 22.2292 31.2971 24.5282 31.2971C27.951 31.2971 30.8098 29.0188 30.9465 25.7002C31.0211 23.8932 30.8165 22.2315 29.7117 20.9702C28.3943 22.5907 26.2848 23.4675 23.9986 23.8932C21.7254 24.3191 20.3693 25.6674 20.3693 27.5833Z" fill="url(#paint0_linear_1_336)"/>
<defs>
<linearGradient id="paint0_linear_1_336" x1="24.9027" y1="9.61795" x2="24.9027" y2="34.8453" gradientUnits="userSpaceOnUse">
<stop stop-color="#FFDD55"/>
<stop offset="1" stop-color="#F2A812"/>
</linearGradient>
</defs>
</svg>
