<svg width="16" height="15" viewBox="0 0 16 15" fill="none" xmlns="http://www.w3.org/2000/svg">
<path d="M12.898 5.27299L6.89798 11.273C6.84572 11.3254 6.78362 11.367 6.71525 11.3954C6.64688 11.4238 6.57357 11.4384 6.49954 11.4384C6.42551 11.4384 6.3522 11.4238 6.28383 11.3954C6.21546 11.367 6.15336 11.3254 6.1011 11.273L3.4761 8.64799C3.42378 8.59566 3.38227 8.53355 3.35396 8.46518C3.32564 8.39682 3.31107 8.32355 3.31107 8.24955C3.31107 8.17555 3.32564 8.10228 3.35396 8.03392C3.38227 7.96555 3.42378 7.90344 3.4761 7.85111C3.52843 7.79879 3.59054 7.75728 3.65891 7.72897C3.72727 7.70065 3.80054 7.68607 3.87454 7.68607C3.94854 7.68607 4.02181 7.70065 4.09017 7.72897C4.15854 7.75728 4.22066 7.79879 4.27298 7.85111L6.50001 10.0781L12.102 4.47705C12.2077 4.37138 12.351 4.31201 12.5005 4.31201C12.6499 4.31201 12.7932 4.37138 12.8989 4.47705C13.0046 4.58272 13.064 4.72604 13.064 4.87549C13.064 5.02493 13.0046 5.16825 12.8989 5.27393L12.898 5.27299Z" fill="white"/>
</svg>
