<svg width="21" height="15" viewBox="0 0 21 15" fill="none" xmlns="http://www.w3.org/2000/svg">
<path d="M5.40564 14.3535C4.49915 14.3535 3.63386 14.1063 2.80978 13.6119C2.01317 13.0899 1.36764 12.4032 0.873187 11.5517C0.378737 10.7001 0.131513 9.72494 0.131513 8.62616C0.131513 7.77461 0.337533 6.9368 0.749575 6.11271C1.16162 5.26116 1.711 4.45081 2.39774 3.68167C3.11194 2.88506 3.90856 2.18459 4.78758 1.58026C5.69407 0.975934 6.61429 0.49522 7.54825 0.138119L9.48485 2.40435C8.22125 3.09108 7.19115 3.80528 6.39454 4.54696C5.59793 5.28863 5.19962 5.9479 5.19962 6.52476C5.19962 6.96427 5.33697 7.3351 5.61166 7.63727C5.91382 7.91196 6.27093 8.17292 6.68297 8.42014C7.28729 8.80472 7.83668 9.21676 8.33113 9.65627C8.82558 10.0683 9.07281 10.6452 9.07281 11.3868C9.07281 12.3757 8.7157 13.1174 8.0015 13.6119C7.28729 14.1063 6.42201 14.3535 5.40564 14.3535ZM16.572 14.3535C15.6655 14.3535 14.8002 14.1063 13.9761 13.6119C13.1795 13.0899 12.534 12.4032 12.0395 11.5517C11.5451 10.7001 11.2978 9.72494 11.2978 8.62616C11.2978 7.77461 11.5038 6.9368 11.9159 6.11271C12.3279 5.26116 12.8773 4.45081 13.5641 3.68167C14.2783 2.88506 15.0749 2.18459 15.9539 1.58026C16.8604 0.975934 17.7806 0.49522 18.7146 0.138119L20.6512 2.40435C19.3876 3.09108 18.3575 3.80528 17.5609 4.54696C16.7642 5.28863 16.3659 5.9479 16.3659 6.52476C16.3659 6.96427 16.5033 7.3351 16.778 7.63727C17.0801 7.91196 17.4372 8.17292 17.8493 8.42014C18.4536 8.80472 19.003 9.21676 19.4974 9.65627C19.9919 10.0683 20.2391 10.6452 20.2391 11.3868C20.2391 12.3757 19.882 13.1174 19.1678 13.6119C18.4536 14.1063 17.5883 14.3535 16.572 14.3535Z" fill="black"/>
</svg>
