<svg width="41" height="40" viewBox="0 0 41 40" fill="none" xmlns="http://www.w3.org/2000/svg">
<rect x="0.595947" width="40" height="40" rx="20" fill="#191919"/>
<g clip-path="url(#clip0_1_802)">
<path d="M26.5959 11C27.2526 11 27.9027 11.1293 28.5094 11.3806C29.116 11.6319 29.6672 12.0002 30.1315 12.4645C30.5958 12.9288 30.9641 13.48 31.2153 14.0866C31.4666 14.6932 31.5959 15.3434 31.5959 16V24C31.5959 24.6566 31.4666 25.3068 31.2153 25.9134C30.9641 26.52 30.5958 27.0712 30.1315 27.5355C29.6672 27.9998 29.116 28.3681 28.5094 28.6194C27.9027 28.8707 27.2526 29 26.5959 29H14.5959C13.9393 29 13.2892 28.8707 12.6825 28.6194C12.0759 28.3681 11.5247 27.9998 11.0604 27.5355C10.1227 26.5979 9.59595 25.3261 9.59595 24V16C9.59595 14.6739 10.1227 13.4021 11.0604 12.4645C11.9981 11.5268 13.2699 11 14.5959 11H26.5959ZM17.5959 17V23C17.5961 23.1768 17.6431 23.3505 17.7323 23.5032C17.8214 23.656 17.9494 23.7823 18.1033 23.8695C18.2572 23.9566 18.4315 24.0013 18.6083 23.9991C18.7852 23.9969 18.9583 23.9479 19.1099 23.857L24.1099 20.857C24.2578 20.7681 24.3801 20.6425 24.4651 20.4923C24.55 20.3421 24.5946 20.1725 24.5946 20C24.5946 19.8275 24.55 19.6579 24.4651 19.5077C24.3801 19.3575 24.2578 19.2319 24.1099 19.143L19.1099 16.143C18.9583 16.0521 18.7852 16.0031 18.6083 16.0009C18.4315 15.9987 18.2572 16.0434 18.1033 16.1305C17.9494 16.2177 17.8214 16.344 17.7323 16.4968C17.6431 16.6495 17.5961 16.8232 17.5959 17Z" fill="#FFB600"/>
</g>
<defs>
<clipPath id="clip0_1_802">
<rect width="24" height="24" fill="white" transform="translate(8.59595 8)"/>
</clipPath>
</defs>
</svg>
