<svg width="41" height="40" viewBox="0 0 41 40" fill="none" xmlns="http://www.w3.org/2000/svg">
<rect x="0.595947" width="40" height="40" rx="20" fill="#191919"/>
<g clip-path="url(#clip0_1_799)">
<path d="M12.5959 14C12.5959 13.4696 12.8067 12.9609 13.1817 12.5858C13.5568 12.2107 14.0655 12 14.5959 12H26.5959C27.1264 12 27.6351 12.2107 28.0102 12.5858C28.3852 12.9609 28.5959 13.4696 28.5959 14V26C28.5959 26.5304 28.3852 27.0391 28.0102 27.4142C27.6351 27.7893 27.1264 28 26.5959 28H14.5959C14.0655 28 13.5568 27.7893 13.1817 27.4142C12.8067 27.0391 12.5959 26.5304 12.5959 26V14Z" stroke="#FFB600" stroke-width="2" stroke-linecap="round" stroke-linejoin="round"/>
<path d="M16.5959 19V24" stroke="#FFB600" stroke-width="1.5" stroke-linecap="round" stroke-linejoin="round"/>
<path d="M16.5959 16V16.01" stroke="#FFB600" stroke-width="1.5" stroke-linecap="round" stroke-linejoin="round"/>
<path d="M20.5959 24V19" stroke="#FFB600" stroke-width="2" stroke-linecap="round" stroke-linejoin="round"/>
<path d="M24.5959 24V21C24.5959 20.4696 24.3852 19.9609 24.0102 19.5858C23.6351 19.2107 23.1264 19 22.5959 19C22.0655 19 21.5568 19.2107 21.1817 19.5858C20.8067 19.9609 20.5959 20.4696 20.5959 21" stroke="#FFB600" stroke-width="1.5" stroke-linecap="round" stroke-linejoin="round"/>
</g>
<defs>
<clipPath id="clip0_1_799">
<rect width="24" height="24" fill="white" transform="translate(8.59595 8)"/>
</clipPath>
</defs>
</svg>
