<svg width="41" height="40" viewBox="0 0 41 40" fill="none" xmlns="http://www.w3.org/2000/svg">
<rect x="0.595947" width="40" height="40" rx="20" fill="#191919"/>
<g clip-path="url(#clip0_1_800)">
<path d="M11.5959 20C11.5959 21.1819 11.8287 22.3522 12.281 23.4442C12.7333 24.5361 13.3963 25.5282 14.232 26.364C15.0677 27.1997 16.0599 27.8626 17.1518 28.3149C18.2437 28.7672 19.4141 29 20.5959 29C21.7778 29 22.9482 28.7672 24.0401 28.3149C25.132 27.8626 26.1242 27.1997 26.9599 26.364C27.7956 25.5282 28.4586 24.5361 28.9109 23.4442C29.3632 22.3522 29.5959 21.1819 29.5959 20C29.5959 18.8181 29.3632 17.6478 28.9109 16.5558C28.4586 15.4639 27.7956 14.4718 26.9599 13.636C26.1242 12.8003 25.132 12.1374 24.0401 11.6851C22.9482 11.2328 21.7778 11 20.5959 11C19.4141 11 18.2437 11.2328 17.1518 11.6851C16.0599 12.1374 15.0677 12.8003 14.232 13.636C13.3963 14.4718 12.7333 15.4639 12.281 16.5558C11.8287 17.6478 11.5959 18.8181 11.5959 20Z" stroke="#FFB600" stroke-width="2" stroke-linecap="round" stroke-linejoin="round"/>
<path d="M16.5959 19.9729C19.0959 18.4999 22.0959 18.9999 24.0959 20.4999" stroke="#FFB600" stroke-width="1.5" stroke-linecap="round" stroke-linejoin="round"/>
<path d="M17.5959 23.0002C19.0959 22.0002 21.5959 22.0002 22.5959 23.5002" stroke="#FFB600" stroke-width="1.5" stroke-linecap="round" stroke-linejoin="round"/>
<path d="M15.5959 17.0002C17.5959 16.0002 21.5959 15.0002 25.5959 17.5002" stroke="#FFB600" stroke-width="1.5" stroke-linecap="round" stroke-linejoin="round"/>
</g>
<defs>
<clipPath id="clip0_1_800">
<rect width="24" height="24" fill="white" transform="translate(8.59595 8)"/>
</clipPath>
</defs>
</svg>
