<svg width="41" height="40" viewBox="0 0 41 40" fill="none" xmlns="http://www.w3.org/2000/svg">
<rect x="0.595947" width="40" height="40" rx="20" fill="#191919"/>
<g clip-path="url(#clip0_1_801)">
<path d="M12.5959 16C12.5959 14.9391 13.0174 13.9217 13.7675 13.1716C14.5177 12.4214 15.5351 12 16.5959 12H24.5959C25.6568 12 26.6742 12.4214 27.4244 13.1716C28.1745 13.9217 28.5959 14.9391 28.5959 16V24C28.5959 25.0609 28.1745 26.0783 27.4244 26.8284C26.6742 27.5786 25.6568 28 24.5959 28H16.5959C15.5351 28 14.5177 27.5786 13.7675 26.8284C13.0174 26.0783 12.5959 25.0609 12.5959 24V16Z" stroke="#FFB600" stroke-width="2" stroke-linecap="round" stroke-linejoin="round"/>
<path d="M17.5959 20C17.5959 20.7956 17.912 21.5587 18.4746 22.1213C19.0372 22.6839 19.8003 23 20.5959 23C21.3916 23 22.1547 22.6839 22.7173 22.1213C23.2799 21.5587 23.5959 20.7956 23.5959 20C23.5959 19.2044 23.2799 18.4413 22.7173 17.8787C22.1547 17.3161 21.3916 17 20.5959 17C19.8003 17 19.0372 17.3161 18.4746 17.8787C17.912 18.4413 17.5959 19.2044 17.5959 20Z" stroke="#FFB600" stroke-width="2" stroke-linecap="round" stroke-linejoin="round"/>
<path d="M25.0959 15.5V15.5097" stroke="#FFB600" stroke-width="2" stroke-linecap="round" stroke-linejoin="round"/>
</g>
<defs>
<clipPath id="clip0_1_801">
<rect width="24" height="24" fill="white" transform="translate(8.59595 8)"/>
</clipPath>
</defs>
</svg>
